<svg version="1.1" xmlns="http://www.w3.org/2000/svg" xmlns:xlink="http://www.w3.org/1999/xlink" width="800" height="800"><defs/><g transform="scale(2,2)"><g id="background-013e23aa"><rect fill="white" stroke="none" x="0" y="0" width="400" height="400" class="dcg-svg-background"/></g><g id="graphpaper-013e23aa"><g id="grid-013e23aa"><g><path fill="none" stroke="rgb(0,0,0)" class="dcg-svg-minor-gridline" paint-order="fill stroke markers" d=" M 23.5 0 L 23.5 400" stroke-opacity="0.2" stroke-miterlimit="10" stroke-dasharray=""/><path fill="none" stroke="rgb(0,0,0)" class="dcg-svg-minor-gridline" paint-order="fill stroke markers" d=" M 54.5 0 L 54.5 400" stroke-opacity="0.2" stroke-miterlimit="10" stroke-dasharray=""/><path fill="none" stroke="rgb(0,0,0)" class="dcg-svg-minor-gridline" paint-order="fill stroke markers" d=" M 86.5 0 L 86.5 400" stroke-opacity="0.2" stroke-miterlimit="10" stroke-dasharray=""/><path fill="none" stroke="rgb(0,0,0)" class="dcg-svg-minor-gridline" paint-order="fill stroke markers" d=" M 117.5 0 L 117.5 400" stroke-opacity="0.2" stroke-miterlimit="10" stroke-dasharray=""/><path fill="none" stroke="rgb(0,0,0)" class="dcg-svg-minor-gridline" paint-order="fill stroke markers" d=" M 149.5 0 L 149.5 400" stroke-opacity="0.2" stroke-miterlimit="10" stroke-dasharray=""/><path fill="none" stroke="rgb(0,0,0)" class="dcg-svg-minor-gridline" paint-order="fill stroke markers" d=" M 211.5 0 L 211.5 400" stroke-opacity="0.2" stroke-miterlimit="10" stroke-dasharray=""/><path fill="none" stroke="rgb(0,0,0)" class="dcg-svg-minor-gridline" paint-order="fill stroke markers" d=" M 243.5 0 L 243.5 400" stroke-opacity="0.2" stroke-miterlimit="10" stroke-dasharray=""/><path fill="none" stroke="rgb(0,0,0)" class="dcg-svg-minor-gridline" paint-order="fill stroke markers" d=" M 274.5 0 L 274.5 400" stroke-opacity="0.2" stroke-miterlimit="10" stroke-dasharray=""/><path fill="none" stroke="rgb(0,0,0)" class="dcg-svg-minor-gridline" paint-order="fill stroke markers" d=" M 306.5 0 L 306.5 400" stroke-opacity="0.2" stroke-miterlimit="10" stroke-dasharray=""/><path fill="none" stroke="rgb(0,0,0)" class="dcg-svg-minor-gridline" paint-order="fill stroke markers" d=" M 337.5 0 L 337.5 400" stroke-opacity="0.2" stroke-miterlimit="10" stroke-dasharray=""/><path fill="none" stroke="rgb(0,0,0)" class="dcg-svg-minor-gridline" paint-order="fill stroke markers" d=" M 369.5 0 L 369.5 400" stroke-opacity="0.2" stroke-miterlimit="10" stroke-dasharray=""/><path fill="none" stroke="rgb(0,0,0)" class="dcg-svg-minor-gridline" paint-order="fill stroke markers" d=" M 0 371.5 L 400 371.5" stroke-opacity="0.2" stroke-miterlimit="10" stroke-dasharray=""/><path fill="none" stroke="rgb(0,0,0)" class="dcg-svg-minor-gridline" paint-order="fill stroke markers" d=" M 0 340.5 L 400 340.5" stroke-opacity="0.2" stroke-miterlimit="10" stroke-dasharray=""/><path fill="none" stroke="rgb(0,0,0)" class="dcg-svg-minor-gridline" paint-order="fill stroke markers" d=" M 0 309.5 L 400 309.5" stroke-opacity="0.2" stroke-miterlimit="10" stroke-dasharray=""/><path fill="none" stroke="rgb(0,0,0)" class="dcg-svg-minor-gridline" paint-order="fill stroke markers" d=" M 0 277.5 L 400 277.5" stroke-opacity="0.2" stroke-miterlimit="10" stroke-dasharray=""/><path fill="none" stroke="rgb(0,0,0)" class="dcg-svg-minor-gridline" paint-order="fill stroke markers" d=" M 0 246.5 L 400 246.5" stroke-opacity="0.2" stroke-miterlimit="10" stroke-dasharray=""/><path fill="none" stroke="rgb(0,0,0)" class="dcg-svg-minor-gridline" paint-order="fill stroke markers" d=" M 0 183.5 L 400 183.5" stroke-opacity="0.2" stroke-miterlimit="10" stroke-dasharray=""/><path fill="none" stroke="rgb(0,0,0)" class="dcg-svg-minor-gridline" paint-order="fill stroke markers" d=" M 0 151.5 L 400 151.5" stroke-opacity="0.2" stroke-miterlimit="10" stroke-dasharray=""/><path fill="none" stroke="rgb(0,0,0)" class="dcg-svg-minor-gridline" paint-order="fill stroke markers" d=" M 0 120.5 L 400 120.5" stroke-opacity="0.2" stroke-miterlimit="10" stroke-dasharray=""/><path fill="none" stroke="rgb(0,0,0)" class="dcg-svg-minor-gridline" paint-order="fill stroke markers" d=" M 0 89.5 L 400 89.5" stroke-opacity="0.2" stroke-miterlimit="10" stroke-dasharray=""/><path fill="none" stroke="rgb(0,0,0)" class="dcg-svg-minor-gridline" paint-order="fill stroke markers" d=" M 0 57.5 L 400 57.5" stroke-opacity="0.2" stroke-miterlimit="10" stroke-dasharray=""/><path fill="none" stroke="rgb(0,0,0)" class="dcg-svg-minor-gridline" paint-order="fill stroke markers" d=" M 0 26.5 L 400 26.5" stroke-opacity="0.2" stroke-miterlimit="10" stroke-dasharray=""/><path fill="none" stroke="rgb(0,0,0)" class="dcg-svg-major-gridline" paint-order="fill stroke markers" d=" M 23.5 0 L 23.5 400" stroke-opacity="0.2500000000000001" stroke-miterlimit="10" stroke-dasharray=""/><path fill="none" stroke="rgb(0,0,0)" class="dcg-svg-major-gridline" paint-order="fill stroke markers" d=" M 337.5 0 L 337.5 400" stroke-opacity="0.2500000000000001" stroke-miterlimit="10" stroke-dasharray=""/><path fill="none" stroke="rgb(0,0,0)" class="dcg-svg-major-gridline" paint-order="fill stroke markers" d=" M 0 371.5 L 400 371.5" stroke-opacity="0.2500000000000001" stroke-miterlimit="10" stroke-dasharray=""/><path fill="none" stroke="rgb(0,0,0)" class="dcg-svg-major-gridline" paint-order="fill stroke markers" d=" M 0 57.5 L 400 57.5" stroke-opacity="0.2500000000000001" stroke-miterlimit="10" stroke-dasharray=""/></g></g><g id="axis-013e23aa"><g id="yaxis-013e23aa"><title>Y axis</title><g><path fill="none" stroke="rgb(0,0,0)" class="dcg-svg-axis-line" paint-order="fill stroke markers" d=" M 180 0 L 180 400" stroke-opacity="0.9" stroke-miterlimit="10" stroke-width="1.5" stroke-dasharray=""/></g></g><g id="xaxis-013e23aa"><title>X axis</title><g><path fill="none" stroke="rgb(0,0,0)" class="dcg-svg-axis-line" paint-order="fill stroke markers" d=" M 0 215 L 400 215" stroke-opacity="0.9" stroke-miterlimit="10" stroke-width="1.5" stroke-dasharray=""/></g></g><g><g class="dcg-svg-axis-value"><text fill="none" stroke="#ffffff" font-family="Arial" font-size="14px" font-style="normal" font-weight="normal" text-decoration="normal" x="171.58438586279556" y="230.61170393214138" text-anchor="middle" stroke-miterlimit="2" stroke-width="3" stroke-dasharray="">0</text><text fill="#000000" stroke="none" font-family="Arial" font-size="14px" font-style="normal" font-weight="normal" text-decoration="normal" x="171.58438586279556" y="230.61170393214138" text-anchor="middle">0</text></g><g class="dcg-svg-axis-value"><text fill="none" stroke="#ffffff" font-family="Arial" font-size="14px" font-style="normal" font-weight="normal" text-decoration="normal" x="21.03274970371558" y="230.61170393214138" text-anchor="middle" stroke-miterlimit="2" stroke-width="3" stroke-dasharray="">-1</text><text fill="#000000" stroke="none" font-family="Arial" font-size="14px" font-style="normal" font-weight="normal" text-decoration="normal" x="21.03274970371558" y="230.61170393214138" text-anchor="middle">-1</text></g><g class="dcg-svg-axis-value"><text fill="none" stroke="#ffffff" font-family="Arial" font-size="14px" font-style="normal" font-weight="normal" text-decoration="normal" x="337.59110014687553" y="230.61170393214138" text-anchor="middle" stroke-miterlimit="2" stroke-width="3" stroke-dasharray="">1</text><text fill="#000000" stroke="none" font-family="Arial" font-size="14px" font-style="normal" font-weight="normal" text-decoration="normal" x="337.59110014687553" y="230.61170393214138" text-anchor="middle">1</text></g><g class="dcg-svg-axis-value"><text fill="none" stroke="#ffffff" font-family="Arial" font-size="14px" font-style="normal" font-weight="normal" text-decoration="normal" x="169.25333117529556" y="375.72535180997306" text-anchor="middle" stroke-miterlimit="2" stroke-width="3" stroke-dasharray="">-1</text><text fill="#000000" stroke="none" font-family="Arial" font-size="14px" font-style="normal" font-weight="normal" text-decoration="normal" x="169.25333117529556" y="375.72535180997306" text-anchor="middle">-1</text></g><g class="dcg-svg-axis-value"><text fill="none" stroke="#ffffff" font-family="Arial" font-size="14px" font-style="normal" font-weight="normal" text-decoration="normal" x="171.58438586279556" y="61.49805605430971" text-anchor="middle" stroke-miterlimit="2" stroke-width="3" stroke-dasharray="">1</text><text fill="#000000" stroke="none" font-family="Arial" font-size="14px" font-style="normal" font-weight="normal" text-decoration="normal" x="171.58438586279556" y="61.49805605430971" text-anchor="middle">1</text></g></g></g></g><g id="expressions-013e23aa"><g id="sketch-013e23aa"><title>Выражение 1</title><path fill="#c74440" stroke="none" paint-order="stroke fill markers" d="" fill-opacity="0.4"/><g><path fill="none" stroke="#c74440" class="dcg-svg-curve" paint-order="fill stroke markers" d=" M 2.842170943040401e-14 358.12823414368626 L 2.842170943040401e-14 358.12823414368626 L 7.031250000000057 355.1052173311005 L 14.16015625 351.7534158374452 L 21.48437500000003 348.01625682311453 L 29.00390625000003 343.8783973403494 L 36.71875000000003 339.3259290082409 L 44.62890625000003 334.3466307810978 L 52.83203125 328.8630954048397 L 61.32812500000003 322.8562049412112 L 70.21484375000001 316.2354228337514 L 79.49218750000001 308.97783280902945 L 89.25781250000001 300.98412506660765 L 99.60937500000003 292.14809152140805 L 110.74218750000001 282.2717188546858 L 122.85156250000001 271.1462228002584 L 136.42578125000003 258.2804636343347 L 152.44140625000003 242.69119752721338 L 174.4140625 220.8655887062336 L 212.89062500000003 182.6199670632667 L 229.1015625 166.95208901021502 L 242.77343750000003 154.12723975253328 L 254.8828125 143.14853076749608 L 266.015625 133.42906528639622 L 276.3671875 124.75709368129839 L 286.1328125 116.9335538642242 L 295.41015625 109.85085608627841 L 304.296875 103.40912017663581 L 312.79296875 97.58340894713484 L 320.99609375 92.28357969813067 L 328.90625 87.48911707833031 L 336.62109375 83.12374095550499 L 344.140625 79.1742849055957 L 351.46484375 75.6259606882391 L 358.59375 72.46261107379888 L 365.625 69.62957890048256 L 372.55859375 67.12054829823435 L 379.39453125 64.92836251472409 L 386.1328125 63.04510711450479 L 392.7734375 61.46219095448541 L 399.31640625 60.17042464208322 L 400 60.050900385615535" stroke-linecap="round" stroke-linejoin="round" stroke-miterlimit="10" stroke-width="2.5" stroke-dasharray=""/></g></g><g id="sketch-013e23aa"><title/><path fill="#6042a6" stroke="none" class="dcg-svg-point" paint-order="stroke fill markers" d=" M -8.20220137876305 345.87136549208185 A 3.75 3.75 0 1 1 -8.202203253762894 345.8676154927069 Z"/><path fill="#6042a6" stroke="none" class="dcg-svg-point" paint-order="stroke fill markers" d=" M 7.509163409019976 341.72073714244533 A 3.75 3.75 0 1 1 7.509161534020132 341.71698714307036 Z"/><path fill="#6042a6" stroke="none" class="dcg-svg-point" paint-order="stroke fill markers" d=" M 23.220528196802945 336.42145091317394 A 3.75 3.75 0 1 1 23.220526321803103 336.41770091379897 Z"/><path fill="#6042a6" stroke="none" class="dcg-svg-point" paint-order="stroke fill markers" d=" M 38.93220721188172 329.89856359423004 A 3.75 3.75 0 1 1 38.93220533688187 329.89481359485507 Z"/><path fill="#6042a6" stroke="none" class="dcg-svg-point" paint-order="stroke fill markers" d=" M 54.643571999664715 322.0967711815605 A 3.75 3.75 0 1 1 54.64357012466487 322.0930211821855 Z"/><path fill="#6042a6" stroke="none" class="dcg-svg-point" paint-order="stroke fill markers" d=" M 70.3549367874477 312.988421673139 A 3.75 3.75 0 1 1 70.35493491244786 312.984671673764 Z"/><path fill="#6042a6" stroke="none" class="dcg-svg-point" paint-order="stroke fill markers" d=" M 86.06630157523071 302.5801138421763 A 3.75 3.75 0 1 1 86.06629970023087 302.5763638428013 Z"/><path fill="#6042a6" stroke="none" class="dcg-svg-point" paint-order="stroke fill markers" d=" M 101.77766636301371 290.91945312397934 A 3.75 3.75 0 1 1 101.77766448801387 290.91570312460436 Z"/><path fill="#6042a6" stroke="none" class="dcg-svg-point" paint-order="stroke fill markers" d=" M 117.48903115079669 278.0996079117398 A 3.75 3.75 0 1 1 117.48902927579685 278.0958579123648 Z"/><path fill="#6042a6" stroke="none" class="dcg-svg-point" paint-order="stroke fill markers" d=" M 133.20039593857967 264.26135203395614 A 3.75 3.75 0 1 1 133.20039406357984 264.25760203458117 Z"/><path fill="#6042a6" stroke="none" class="dcg-svg-point" paint-order="stroke fill markers" d=" M 148.91176072636267 249.59133650430724 A 3.75 3.75 0 1 1 148.91175885136283 249.58758650493223 Z"/><path fill="#6042a6" stroke="none" class="dcg-svg-point" paint-order="stroke fill markers" d=" M 164.6231255141457 234.31690477127233 A 3.75 3.75 0 1 1 164.62312363914586 234.31315477189733 Z"/><path fill="#6042a6" stroke="none" class="dcg-svg-point" paint-order="stroke fill markers" d=" M 180.3344903019287 218.69594317647807 A 3.75 3.75 0 1 1 180.33448842692886 218.69219317710306 Z"/><path fill="#6042a6" stroke="none" class="dcg-svg-point" paint-order="stroke fill markers" d=" M 196.0458550897117 203.00533310157957 A 3.75 3.75 0 1 1 196.04585321471185 203.00158310220456 Z"/><path fill="#6042a6" stroke="none" class="dcg-svg-point" paint-order="stroke fill markers" d=" M 211.7572198774947 187.5253181602965 A 3.75 3.75 0 1 1 211.75721800249485 187.5215681609215 Z"/><path fill="#6042a6" stroke="none" class="dcg-svg-point" paint-order="stroke fill markers" d=" M 227.4685846652777 172.5252068564563 A 3.75 3.75 0 1 1 227.46858279027785 172.5214568570813 Z"/><path fill="#6042a6" stroke="none" class="dcg-svg-point" paint-order="stroke fill markers" d=" M 243.1799494530607 158.24876101474135 A 3.75 3.75 0 1 1 243.17994757806085 158.24501101536634 Z"/><path fill="#6042a6" stroke="none" class="dcg-svg-point" paint-order="stroke fill markers" d=" M 258.89131424084366 144.90368487764619 A 3.75 3.75 0 1 1 258.8913123658438 144.89993487827118 Z"/><path fill="#6042a6" stroke="none" class="dcg-svg-point" paint-order="stroke fill markers" d=" M 274.60267902862665 132.6540050935553 A 3.75 3.75 0 1 1 274.6026771536268 132.6502550941803 Z"/><path fill="#6042a6" stroke="none" class="dcg-svg-point" paint-order="stroke fill markers" d=" M 290.31404381640965 121.61645710284186 A 3.75 3.75 0 1 1 290.3140419414098 121.61270710346686 Z"/><path fill="#6042a6" stroke="none" class="dcg-svg-point" paint-order="stroke fill markers" d=" M 306.02540860419265 111.86064225151578 A 3.75 3.75 0 1 1 306.0254067291928 111.85689225214078 Z"/><path fill="#6042a6" stroke="none" class="dcg-svg-point" paint-order="stroke fill markers" d=" M 321.7367733919757 103.41279851877265 A 3.75 3.75 0 1 1 321.73677151697586 103.40904851939764 Z"/><path fill="#6042a6" stroke="none" class="dcg-svg-point" paint-order="stroke fill markers" d=" M 337.44813817975864 96.26145660831739 A 3.75 3.75 0 1 1 337.4481363047588 96.25770660894239 Z"/><path fill="#6042a6" stroke="none" class="dcg-svg-point" paint-order="stroke fill markers" d=" M 353.1591887402459 90.36419583522297 A 3.75 3.75 0 1 1 353.15918686524606 90.36044583584797 Z"/><path fill="#6042a6" stroke="none" class="dcg-svg-point" paint-order="stroke fill markers" d=" M 368.8705535280289 85.65471424008496 A 3.75 3.75 0 1 1 368.87055165302905 85.65096424070995 Z"/><path fill="#6042a6" stroke="none" class="dcg-svg-point" paint-order="stroke fill markers" d=" M 384.5819183158119 82.05037004411963 A 3.75 3.75 0 1 1 384.58191644081205 82.04662004474463 Z"/><path fill="#6042a6" stroke="none" class="dcg-svg-point" paint-order="stroke fill markers" d=" M 400.29328310359494 79.45830908143117 A 3.75 3.75 0 1 1 400.2932812285951 79.45455908205616 Z"/><path fill="#6042a6" stroke="none" class="dcg-svg-point" paint-order="stroke fill markers" d=" M 416.0046478913779 77.78049243574381 A 3.75 3.75 0 1 1 416.00464601637805 77.7767424363688 Z"/></g></g><g id="labels-013e23aa"/><g id="labels-013e23aa"/></g></svg>