<svg version="1.1" xmlns="http://www.w3.org/2000/svg" xmlns:xlink="http://www.w3.org/1999/xlink" width="800" height="800"><defs/><g transform="scale(2,2)"><g id="background-8b10b92f"><rect fill="white" stroke="none" x="0" y="0" width="400" height="400" class="dcg-svg-background"/></g><g id="graphpaper-8b10b92f"><g id="grid-8b10b92f"><g><path fill="none" stroke="rgb(0,0,0)" class="dcg-svg-minor-gridline" paint-order="fill stroke markers" d=" M 10.5 0 L 10.5 400" stroke-opacity="0.2" stroke-miterlimit="10" stroke-dasharray=""/><path fill="none" stroke="rgb(0,0,0)" class="dcg-svg-minor-gridline" paint-order="fill stroke markers" d=" M 31.5 0 L 31.5 400" stroke-opacity="0.2" stroke-miterlimit="10" stroke-dasharray=""/><path fill="none" stroke="rgb(0,0,0)" class="dcg-svg-minor-gridline" paint-order="fill stroke markers" d=" M 53.5 0 L 53.5 400" stroke-opacity="0.2" stroke-miterlimit="10" stroke-dasharray=""/><path fill="none" stroke="rgb(0,0,0)" class="dcg-svg-minor-gridline" paint-order="fill stroke markers" d=" M 74.5 0 L 74.5 400" stroke-opacity="0.2" stroke-miterlimit="10" stroke-dasharray=""/><path fill="none" stroke="rgb(0,0,0)" class="dcg-svg-minor-gridline" paint-order="fill stroke markers" d=" M 96.5 0 L 96.5 400" stroke-opacity="0.2" stroke-miterlimit="10" stroke-dasharray=""/><path fill="none" stroke="rgb(0,0,0)" class="dcg-svg-minor-gridline" paint-order="fill stroke markers" d=" M 117.5 0 L 117.5 400" stroke-opacity="0.2" stroke-miterlimit="10" stroke-dasharray=""/><path fill="none" stroke="rgb(0,0,0)" class="dcg-svg-minor-gridline" paint-order="fill stroke markers" d=" M 139.5 0 L 139.5 400" stroke-opacity="0.2" stroke-miterlimit="10" stroke-dasharray=""/><path fill="none" stroke="rgb(0,0,0)" class="dcg-svg-minor-gridline" paint-order="fill stroke markers" d=" M 160.5 0 L 160.5 400" stroke-opacity="0.2" stroke-miterlimit="10" stroke-dasharray=""/><path fill="none" stroke="rgb(0,0,0)" class="dcg-svg-minor-gridline" paint-order="fill stroke markers" d=" M 181.5 0 L 181.5 400" stroke-opacity="0.2" stroke-miterlimit="10" stroke-dasharray=""/><path fill="none" stroke="rgb(0,0,0)" class="dcg-svg-minor-gridline" paint-order="fill stroke markers" d=" M 203.5 0 L 203.5 400" stroke-opacity="0.2" stroke-miterlimit="10" stroke-dasharray=""/><path fill="none" stroke="rgb(0,0,0)" class="dcg-svg-minor-gridline" paint-order="fill stroke markers" d=" M 246.5 0 L 246.5 400" stroke-opacity="0.2" stroke-miterlimit="10" stroke-dasharray=""/><path fill="none" stroke="rgb(0,0,0)" class="dcg-svg-minor-gridline" paint-order="fill stroke markers" d=" M 267.5 0 L 267.5 400" stroke-opacity="0.2" stroke-miterlimit="10" stroke-dasharray=""/><path fill="none" stroke="rgb(0,0,0)" class="dcg-svg-minor-gridline" paint-order="fill stroke markers" d=" M 288.5 0 L 288.5 400" stroke-opacity="0.2" stroke-miterlimit="10" stroke-dasharray=""/><path fill="none" stroke="rgb(0,0,0)" class="dcg-svg-minor-gridline" paint-order="fill stroke markers" d=" M 310.5 0 L 310.5 400" stroke-opacity="0.2" stroke-miterlimit="10" stroke-dasharray=""/><path fill="none" stroke="rgb(0,0,0)" class="dcg-svg-minor-gridline" paint-order="fill stroke markers" d=" M 331.5 0 L 331.5 400" stroke-opacity="0.2" stroke-miterlimit="10" stroke-dasharray=""/><path fill="none" stroke="rgb(0,0,0)" class="dcg-svg-minor-gridline" paint-order="fill stroke markers" d=" M 353.5 0 L 353.5 400" stroke-opacity="0.2" stroke-miterlimit="10" stroke-dasharray=""/><path fill="none" stroke="rgb(0,0,0)" class="dcg-svg-minor-gridline" paint-order="fill stroke markers" d=" M 374.5 0 L 374.5 400" stroke-opacity="0.2" stroke-miterlimit="10" stroke-dasharray=""/><path fill="none" stroke="rgb(0,0,0)" class="dcg-svg-minor-gridline" paint-order="fill stroke markers" d=" M 396.5 0 L 396.5 400" stroke-opacity="0.2" stroke-miterlimit="10" stroke-dasharray=""/><path fill="none" stroke="rgb(0,0,0)" class="dcg-svg-minor-gridline" paint-order="fill stroke markers" d=" M 0 391.5 L 400 391.5" stroke-opacity="0.2" stroke-miterlimit="10" stroke-dasharray=""/><path fill="none" stroke="rgb(0,0,0)" class="dcg-svg-minor-gridline" paint-order="fill stroke markers" d=" M 0 368.5 L 400 368.5" stroke-opacity="0.2" stroke-miterlimit="10" stroke-dasharray=""/><path fill="none" stroke="rgb(0,0,0)" class="dcg-svg-minor-gridline" paint-order="fill stroke markers" d=" M 0 345.5 L 400 345.5" stroke-opacity="0.2" stroke-miterlimit="10" stroke-dasharray=""/><path fill="none" stroke="rgb(0,0,0)" class="dcg-svg-minor-gridline" paint-order="fill stroke markers" d=" M 0 322.5 L 400 322.5" stroke-opacity="0.2" stroke-miterlimit="10" stroke-dasharray=""/><path fill="none" stroke="rgb(0,0,0)" class="dcg-svg-minor-gridline" paint-order="fill stroke markers" d=" M 0 299.5 L 400 299.5" stroke-opacity="0.2" stroke-miterlimit="10" stroke-dasharray=""/><path fill="none" stroke="rgb(0,0,0)" class="dcg-svg-minor-gridline" paint-order="fill stroke markers" d=" M 0 276.5 L 400 276.5" stroke-opacity="0.2" stroke-miterlimit="10" stroke-dasharray=""/><path fill="none" stroke="rgb(0,0,0)" class="dcg-svg-minor-gridline" paint-order="fill stroke markers" d=" M 0 253.5 L 400 253.5" stroke-opacity="0.2" stroke-miterlimit="10" stroke-dasharray=""/><path fill="none" stroke="rgb(0,0,0)" class="dcg-svg-minor-gridline" paint-order="fill stroke markers" d=" M 0 230.5 L 400 230.5" stroke-opacity="0.2" stroke-miterlimit="10" stroke-dasharray=""/><path fill="none" stroke="rgb(0,0,0)" class="dcg-svg-minor-gridline" paint-order="fill stroke markers" d=" M 0 184.5 L 400 184.5" stroke-opacity="0.2" stroke-miterlimit="10" stroke-dasharray=""/><path fill="none" stroke="rgb(0,0,0)" class="dcg-svg-minor-gridline" paint-order="fill stroke markers" d=" M 0 161.5 L 400 161.5" stroke-opacity="0.2" stroke-miterlimit="10" stroke-dasharray=""/><path fill="none" stroke="rgb(0,0,0)" class="dcg-svg-minor-gridline" paint-order="fill stroke markers" d=" M 0 138.5 L 400 138.5" stroke-opacity="0.2" stroke-miterlimit="10" stroke-dasharray=""/><path fill="none" stroke="rgb(0,0,0)" class="dcg-svg-minor-gridline" paint-order="fill stroke markers" d=" M 0 116.5 L 400 116.5" stroke-opacity="0.2" stroke-miterlimit="10" stroke-dasharray=""/><path fill="none" stroke="rgb(0,0,0)" class="dcg-svg-minor-gridline" paint-order="fill stroke markers" d=" M 0 93.5 L 400 93.5" stroke-opacity="0.2" stroke-miterlimit="10" stroke-dasharray=""/><path fill="none" stroke="rgb(0,0,0)" class="dcg-svg-minor-gridline" paint-order="fill stroke markers" d=" M 0 70.5 L 400 70.5" stroke-opacity="0.2" stroke-miterlimit="10" stroke-dasharray=""/><path fill="none" stroke="rgb(0,0,0)" class="dcg-svg-minor-gridline" paint-order="fill stroke markers" d=" M 0 47.5 L 400 47.5" stroke-opacity="0.2" stroke-miterlimit="10" stroke-dasharray=""/><path fill="none" stroke="rgb(0,0,0)" class="dcg-svg-minor-gridline" paint-order="fill stroke markers" d=" M 0 24.5 L 400 24.5" stroke-opacity="0.2" stroke-miterlimit="10" stroke-dasharray=""/><path fill="none" stroke="rgb(0,0,0)" class="dcg-svg-minor-gridline" paint-order="fill stroke markers" d=" M 0 1.5 L 400 1.5" stroke-opacity="0.2" stroke-miterlimit="10" stroke-dasharray=""/><path fill="none" stroke="rgb(0,0,0)" class="dcg-svg-major-gridline" paint-order="fill stroke markers" d=" M 53.5 0 L 53.5 400" stroke-opacity="0.2500000000000001" stroke-miterlimit="10" stroke-dasharray=""/><path fill="none" stroke="rgb(0,0,0)" class="dcg-svg-major-gridline" paint-order="fill stroke markers" d=" M 139.5 0 L 139.5 400" stroke-opacity="0.2500000000000001" stroke-miterlimit="10" stroke-dasharray=""/><path fill="none" stroke="rgb(0,0,0)" class="dcg-svg-major-gridline" paint-order="fill stroke markers" d=" M 310.5 0 L 310.5 400" stroke-opacity="0.2500000000000001" stroke-miterlimit="10" stroke-dasharray=""/><path fill="none" stroke="rgb(0,0,0)" class="dcg-svg-major-gridline" paint-order="fill stroke markers" d=" M 396.5 0 L 396.5 400" stroke-opacity="0.2500000000000001" stroke-miterlimit="10" stroke-dasharray=""/><path fill="none" stroke="rgb(0,0,0)" class="dcg-svg-major-gridline" paint-order="fill stroke markers" d=" M 0 391.5 L 400 391.5" stroke-opacity="0.2500000000000001" stroke-miterlimit="10" stroke-dasharray=""/><path fill="none" stroke="rgb(0,0,0)" class="dcg-svg-major-gridline" paint-order="fill stroke markers" d=" M 0 299.5 L 400 299.5" stroke-opacity="0.2500000000000001" stroke-miterlimit="10" stroke-dasharray=""/><path fill="none" stroke="rgb(0,0,0)" class="dcg-svg-major-gridline" paint-order="fill stroke markers" d=" M 0 116.5 L 400 116.5" stroke-opacity="0.2500000000000001" stroke-miterlimit="10" stroke-dasharray=""/><path fill="none" stroke="rgb(0,0,0)" class="dcg-svg-major-gridline" paint-order="fill stroke markers" d=" M 0 24.5 L 400 24.5" stroke-opacity="0.2500000000000001" stroke-miterlimit="10" stroke-dasharray=""/></g></g><g id="axis-8b10b92f"><g id="yaxis-8b10b92f"><title>Y axis</title><g><path fill="none" stroke="rgb(0,0,0)" class="dcg-svg-axis-line" paint-order="fill stroke markers" d=" M 225 0 L 225 400" stroke-opacity="0.9" stroke-miterlimit="10" stroke-width="1.5" stroke-dasharray=""/></g></g><g id="xaxis-8b10b92f"><title>X axis</title><g><path fill="none" stroke="rgb(0,0,0)" class="dcg-svg-axis-line" paint-order="fill stroke markers" d=" M 0 208 L 400 208" stroke-opacity="0.9" stroke-miterlimit="10" stroke-width="1.5" stroke-dasharray=""/></g></g><g><g class="dcg-svg-axis-value"><text fill="none" stroke="#ffffff" font-family="Arial" font-size="14px" font-style="normal" font-weight="normal" text-decoration="normal" x="215.82491180081612" y="223.5404168655036" text-anchor="middle" stroke-miterlimit="2" stroke-width="3" stroke-dasharray="">0</text><text fill="#000000" stroke="none" font-family="Arial" font-size="14px" font-style="normal" font-weight="normal" text-decoration="normal" x="215.82491180081612" y="223.5404168655036" text-anchor="middle">0</text></g><g class="dcg-svg-axis-value"><text fill="none" stroke="#ffffff" font-family="Arial" font-size="14px" font-style="normal" font-weight="normal" text-decoration="normal" x="50.99195962049947" y="223.5404168655036" text-anchor="middle" stroke-miterlimit="2" stroke-width="3" stroke-dasharray="">-40</text><text fill="#000000" stroke="none" font-family="Arial" font-size="14px" font-style="normal" font-weight="normal" text-decoration="normal" x="50.99195962049947" y="223.5404168655036" text-anchor="middle">-40</text></g><g class="dcg-svg-axis-value"><text fill="none" stroke="#ffffff" font-family="Arial" font-size="14px" font-style="normal" font-weight="normal" text-decoration="normal" x="136.68944157003278" y="223.5404168655036" text-anchor="middle" stroke-miterlimit="2" stroke-width="3" stroke-dasharray="">-20</text><text fill="#000000" stroke="none" font-family="Arial" font-size="14px" font-style="normal" font-weight="normal" text-decoration="normal" x="136.68944157003278" y="223.5404168655036" text-anchor="middle">-20</text></g><g class="dcg-svg-axis-value"><text fill="none" stroke="#ffffff" font-family="Arial" font-size="14px" font-style="normal" font-weight="normal" text-decoration="normal" x="310.41546015659947" y="223.5404168655036" text-anchor="middle" stroke-miterlimit="2" stroke-width="3" stroke-dasharray="">20</text><text fill="#000000" stroke="none" font-family="Arial" font-size="14px" font-style="normal" font-weight="normal" text-decoration="normal" x="310.41546015659947" y="223.5404168655036" text-anchor="middle">20</text></g><g class="dcg-svg-axis-value dcg-svg-offcenter-axis-value"><text fill="none" stroke="#ffffff" font-family="Arial" font-size="14px" font-style="normal" font-weight="normal" text-decoration="normal" x="389.2138671875" y="223.5404168655036" text-anchor="middle" stroke-miterlimit="2" stroke-width="3" stroke-dasharray="">40</text><text fill="#000000" stroke="none" font-family="Arial" font-size="14px" font-style="normal" font-weight="normal" text-decoration="normal" x="389.2138671875" y="223.5404168655036" text-anchor="middle">40</text></g><g class="dcg-svg-axis-value dcg-svg-offcenter-axis-value"><text fill="none" stroke="#ffffff" font-family="Arial" font-size="14px" font-style="normal" font-weight="normal" text-decoration="normal" x="213.49385711331612" y="393.808" text-anchor="middle" stroke-miterlimit="2" stroke-width="3" stroke-dasharray="">-4</text><text fill="#000000" stroke="none" font-family="Arial" font-size="14px" font-style="normal" font-weight="normal" text-decoration="normal" x="213.49385711331612" y="393.808" text-anchor="middle">-4</text></g><g class="dcg-svg-axis-value"><text fill="none" stroke="#ffffff" font-family="Arial" font-size="14px" font-style="normal" font-weight="normal" text-decoration="normal" x="213.49385711331612" y="303.2308436344604" text-anchor="middle" stroke-miterlimit="2" stroke-width="3" stroke-dasharray="">-2</text><text fill="#000000" stroke="none" font-family="Arial" font-size="14px" font-style="normal" font-weight="normal" text-decoration="normal" x="213.49385711331612" y="303.2308436344604" text-anchor="middle">-2</text></g><g class="dcg-svg-axis-value"><text fill="none" stroke="#ffffff" font-family="Arial" font-size="14px" font-style="normal" font-weight="normal" text-decoration="normal" x="215.82491180081612" y="119.84999009654678" text-anchor="middle" stroke-miterlimit="2" stroke-width="3" stroke-dasharray="">2</text><text fill="#000000" stroke="none" font-family="Arial" font-size="14px" font-style="normal" font-weight="normal" text-decoration="normal" x="215.82491180081612" y="119.84999009654678" text-anchor="middle">2</text></g><g class="dcg-svg-axis-value"><text fill="none" stroke="#ffffff" font-family="Arial" font-size="14px" font-style="normal" font-weight="normal" text-decoration="normal" x="215.82491180081612" y="28.15956332758993" text-anchor="middle" stroke-miterlimit="2" stroke-width="3" stroke-dasharray="">4</text><text fill="#000000" stroke="none" font-family="Arial" font-size="14px" font-style="normal" font-weight="normal" text-decoration="normal" x="215.82491180081612" y="28.15956332758993" text-anchor="middle">4</text></g></g></g></g><g id="expressions-8b10b92f"><g id="sketch-8b10b92f"><title>Выражение 1</title><path fill="#388c46" stroke="none" paint-order="stroke fill markers" d="" fill-opacity="0.4"/><g><path fill="none" stroke="#388c46" class="dcg-svg-curve" paint-order="fill stroke markers" d=" M 0 245.35663219683073 L 0 245.35663219683073 L 0.7812499999999716 249.48271795651965 L 1.3671875 251.674771298027 L 1.85546875 252.87605796333642 L 2.3437499999999716 253.49175883617215 L 2.7343749999999716 253.55707236662408 L 3.125 253.24180906433256 L 3.6132812499999716 252.3168320074413 L 4.1015625 250.8135232201455 L 4.6875 248.2741251919819 L 5.37109375 244.3589522336016 L 6.25 237.97495666738087 L 7.324218749999972 228.4817756066802 L 8.886718749999972 212.53821658885005 L 11.621093749999972 184.43258154511952 L 12.6953125 175.3659433953921 L 13.57421875 169.43119001958843 L 14.35546875 165.49768637727982 L 14.94140625 163.46097991294502 L 15.429687499999972 162.39396927203336 L 15.917968749999972 161.91507137785416 L 16.2109375 161.91293145264734 L 16.60156249999997 162.24300384208482 L 17.08984375 163.18624462488236 L 17.57812499999997 164.70732106601017 L 18.1640625 167.26706158537536 L 18.84765624999997 171.20414048903254 L 19.72656249999997 177.6125630844772 L 20.80078125 187.1285280370094 L 22.36328125 203.08873733767382 L 25.09765624999997 231.17247368318198 L 26.17187499999997 240.2141165580366 L 27.05078125 246.12297513856788 L 27.83203125 250.0302794246669 L 28.41796874999997 252.0459125066693 L 28.90624999999997 253.09474496473308 L 29.39453124999997 253.55515490741158 L 29.6875 253.5461530631129 L 30.078125 253.20127575841886 L 30.56640624999997 252.23978317163403 L 31.05468749999997 250.7009583020409 L 31.640625 248.1209076448448 L 32.32421875 244.16197255789743 L 33.203125 237.72920393131093 L 34.27734375 228.1905753622418 L 35.83984375 212.21391750488132 L 38.47656249999997 185.05453492300322 L 39.6484375 175.13590149703512 L 40.52734375 169.25301239571064 L 41.30859375 165.37195685147736 L 41.89453124999997 163.37742262803206 L 42.3828125 162.34678160934158 L 42.87109374999997 161.90486543743094 L 43.1640625 161.92500893745785 L 43.55468749999997 162.284686798395 L 44.04296874999997 163.2644190365579 L 44.53125 164.82097288492182 L 45.1171875 167.4213010698714 L 45.80078125 171.40204230187516 L 46.6796875 177.85907565380396 L 47.75390625 187.4202472776638 L 49.31640624999997 203.4131517576834 L 51.953125 230.55180582541146 L 53.125 240.44333591222943 L 54.00390625 246.30018117864924 L 54.78515625 250.15493892712735 L 55.37109375 252.12834908246597 L 55.859375 253.14078563518493 L 56.34765625000003 253.56420245080935 L 56.640625 253.5329175496542 L 57.03124999999997 253.15844367855632 L 57.51953125 252.16048417216118 L 58.00781249999997 250.58622101880366 L 58.59375 247.96564817247165 L 59.27734375 243.96315110926048 L 60.15624999999997 237.481934644478 L 61.23046875 227.89834081250243 L 62.79296875 211.88939184920676 L 65.42968749999997 184.77180930967035 L 66.60156249999997 174.9075075841827 L 67.48046875 169.07678017918897 L 68.1640625 165.65206662425382 L 68.74999999999997 163.5646666063699 L 69.23828125 162.45389118001845 L 69.72656249999997 161.9304512166643 L 70.01953124999997 161.90145311582995 L 70.3125 162.08662384309406 L 70.70312499999997 162.66503035608054 L 71.19140624999997 163.9135207833381 L 71.77734375 166.16005221187947 L 72.4609375 169.75823283181919 L 73.2421875 175.0449460680946 L 74.21875 183.15314052875908 L 75.48828125 195.52301018137473 L 79.4921875 236.01646192517583 L 80.46875 243.43711987344602 L 81.25 248.0594558498535 L 81.93359375 251.01150113884677 L 82.51953124999997 252.6690469829506 L 83.0078125 253.4102951281579 L 83.37402385207227 253.57763024998204 L 83.69140624999997 253.45192454837877 L 84.08203125 252.95321265195145 L 84.5703125 251.80247219535434 L 85.15624999999997 249.66883146244035 L 85.83984374999997 246.19362484340314 L 86.62109375000003 241.03213879945372 L 87.59765625 233.05151160881678 L 88.8671875 220.78953068390547 L 93.06640625 178.50771883611714 L 94.04296874999997 171.28256066595202 L 94.82421875 166.84492893469076 L 95.50781250000003 164.06996656739526 L 96.09375 162.5721336037579 L 96.58203125 161.96729854970988 L 96.97265625 161.9107384357817 L 97.36328125 162.23473042981962 L 97.85156249999999 163.17047321291415 L 98.33984374999999 164.68425623497436 L 98.92578125000001 167.23564764535746 L 99.60937500000001 171.16373756181744 L 100.48828125 177.5621397435384 L 101.5625 187.0687637394005 L 103.12499999999999 203.02216051898682 L 105.859375 231.1149318495202 L 106.93359375 240.16685210065307 L 107.8125 246.08635262671976 L 108.59375 250.00442085578118 L 109.17968749999999 252.02871016264507 L 109.66796874999999 253.08500854149992 L 110.15625 253.55301070207298 L 110.44921875000001 253.5485838720279 L 110.83984374999999 253.20978522703115 L 111.32812499999999 252.25578571666182 L 111.81640624999999 250.72424634468044 L 112.40234375 248.15253148047816 L 113.08593750000001 244.20256491405743 L 113.96484374999999 237.7797834045658 L 115.0390625 228.2504463701208 L 116.60156249999999 212.28051817599183 L 119.23828124999999 185.1127234790828 L 120.41015624999999 175.1829972004161 L 121.2890625 169.2894355265936 L 122.0703125 165.39759580082904 L 122.65625000000001 163.3943949237563 L 123.14453125 162.35628256870933 L 123.63281250000001 161.90677181768444 L 123.92578125000001 161.92234036721726 L 124.31640624999999 162.27594138098956 L 124.80468749999999 163.24818556073183 L 125.29296875 164.7974619250234 L 125.87890625 167.3894677383265 L 126.5625 171.3612610298298 L 127.44140624999999 177.80834068752338 L 128.515625 187.36027031624332 L 130.078125 203.3465280759364 L 132.71484374999997 230.49373518283213 L 133.88671875 240.39640955810887 L 134.765625 246.26395788909537 L 135.546875 250.12951992136834 L 136.1328125 252.11160704955972 L 136.62109375 253.13152025976822 L 137.109375 253.56253391973627 L 137.40234375 253.53582384749149 L 137.79296875 253.1674249342188 L 138.28125 252.17694837360557 L 138.76953125 250.6099545987983 L 139.35546875 247.99769059757656 L 140.0390625 244.00412078174347 L 140.91796875 237.53282446252877 L 141.9921875 227.95842296939702 L 143.5546875 211.95603769951265 L 146.19140625000003 184.82976130477533 L 147.36328125 174.9542639959258 L 148.2421875 169.11280316957652 L 148.92578125 165.67867175663102 L 149.51171875 163.5826519045373 L 150 162.46442973715813 L 150.48828125 161.93340633070292 L 150.78125 161.89983343308393 L 151.07421875 162.08043693236672 L 151.46484375 162.65280245285612 L 151.953125 163.8938902541593 L 152.5390625 166.13188288713354 L 153.22265625 169.72077696766405 L 154.00390625 174.99805456566628 L 154.98046875 183.09667239522014 L 156.25 195.45851423459771 L 160.25390625 235.96376070654006 L 161.23046875 243.39510183511254 L 162.01171875 248.0275795451382 L 162.6953125 250.98937812710344 L 163.28125 252.65574096206103 L 163.76953125 253.40453351727433 L 164.14199776921163 253.57763024998204 L 164.453125 253.4568285350904 L 164.84375 252.96417266988811 L 165.33203125 251.8208684223029 L 165.91796875 249.69582786595737 L 166.6015625 246.23000697158605 L 167.3828125 241.07810313395794 L 168.359375 233.10727833905557 L 169.62890625 220.8536709642684 L 173.828125 178.55931507979494 L 174.8046875 171.32319186054278 L 175.5859375 166.87524396241915 L 176.26953125 164.090417974726 L 176.85546875 162.58370716750278 L 177.34375 161.97130167094528 L 177.734375 161.90864306900025 L 178.125 162.2265539771828 L 178.61328125 163.15479676642303 L 179.1015625 164.66128314340898 L 179.6875 167.2043200075672 L 180.37109375 171.12341256571983 L 181.25 177.51178069815134 L 182.32421875 187.00904347787986 L 183.88671875 202.95559373827658 L 186.62109375 231.05734018563314 L 187.6953125 240.11951852259477 L 188.57421875 246.0496483792131 L 189.35546875 249.97847220148412 L 189.94140625 252.01141341926848 L 190.4296875 253.07517546784825 L 190.91796875 253.55076884896152 L 191.2109375 253.55091704260406 L 191.6015625 253.21819777931466 L 192.08984375 252.27169337841883 L 192.578125 250.7474427678963 L 193.1640625 248.18406917724155 L 193.84765625 244.24307954907874 L 194.7265625 237.83029884420196 L 195.80078125 228.31027365224864 L 197.36328125 212.34710915469256 L 200 185.1709602397468 L 201.171875 175.2301622695137 L 202.05078125 169.32594058289882 L 202.83203125000003 165.4233249694608 L 203.41796875 163.4114617077606 L 203.90625000000003 162.365880228667 L 204.39453125000003 161.90877585647536 L 204.6875 161.91976942233612 L 205.078125 162.26729283538828 L 205.56640625 163.23204688477085 L 206.0546875 164.77404246334393 L 206.640625 167.3577203812049 L 207.32421875 171.3205572679622 L 208.203125 177.7576694921186 L 209.27734375 187.30033676968426 L 210.83984375 203.27991374090962 L 213.4765625 230.43561603385348 L 214.6484375 240.3494135941062 L 215.52734375 246.22765248539022 L 216.30859375 250.10401056360087 L 216.89453125000003 252.0947704406404 L 217.3828125 253.12215813481237 L 217.87109375 253.56076772059555 L 218.1640625 253.53863253418265 L 218.5546875 253.17630936382614 L 219.04296875000003 252.1933178597887 L 219.53125000000003 250.63359680293536 L 220.1171875 248.0296472137914 L 220.80078125 244.04501315598984 L 221.6796875 237.5836507732531 L 222.75390625 228.01846202286808 L 224.31640625 212.02267454890594 L 226.953125 184.88776210748307 L 228.125 175.00109026083663 L 229.00390625 169.14890846180583 L 229.78515625 165.2988569133396 L 230.37109375 163.3292255828053 L 230.859375 162.32004465903316 L 231.34765625 161.89993540338386 L 231.640625 161.93321193057525 L 232.03125000000003 162.31033027871888 L 232.51953125 163.31154681307027 L 233.0078125 164.88897363439557 L 233.59375 167.51316198267932 L 234.27734375 171.51954284847392 L 235.15625 178.005073722586 L 236.23046875 187.59266304834142 L 237.79296875 203.60445884921808 L 240.4296875 230.71823847237093 L 241.6015625 240.57765964463513 L 242.48046875 246.40371038383427 L 243.1640625 249.82432160407677 L 243.75 251.90796759650482 L 244.23828125 253.0155003525316 L 244.7265625 253.53563852352835 L 245.01953125 253.56264497217373 L 245.3125 253.37548603039224 L 245.703125 252.79444996291477 L 246.19140625000003 251.5427376416639 L 246.77734375 249.29249035343602 L 247.4609375 245.69026924430358 L 248.24218750000003 240.39945173308888 L 249.21875 232.2870934950451 L 250.48828125 219.91373717882402 L 254.4921875 179.42544721924097 L 255.46875 172.0094451230075 L 256.25 167.39152741718215 L 256.93359375 164.44373017941408 L 257.51953125 162.790023906488 L 258.0078125 162.05206070564626 L 258.3713006725408 161.88720348102518 L 258.69140625 162.01507456963486 L 259.08203125 162.51642262071067 L 259.5703125 163.67039965673445 L 260.15625 165.80778304665512 L 260.83984375 169.28707341696042 L 261.62109375 174.45272762747223 L 262.59765625 182.43761696681509 L 263.8671875 194.7032351433509 L 268.06640625 236.97955780549648 L 269.04296875 244.19993754252198 L 269.82421875 248.6330751868572 L 270.5078125 251.4037415899089 L 271.09375 252.89770859653925 L 271.58203125 253.49924746382783 L 271.97265625 253.5531525698691 L 272.36328125 253.22651339734156 L 272.8515625 252.2875061230046 L 273.33984375 250.77054752225487 L 273.92578125 248.2155206679254 L 274.609375 244.28351637662098 L 275.48828125 237.8807501425669 L 276.5625 228.37005708112804 L 278.125 212.41369029907244 L 280.859375 184.32484498118393 L 281.93359375 175.2773966038153 L 282.8125 169.36252748683108 L 283.59375 165.4491443025416 L 284.1796875 163.42862294367387 L 284.66796875 162.37557456876115 L 285.15625 161.91087754953293 L 285.44921875 161.91729610829336 L 285.83984375 162.25874118002199 L 286.328125 163.21600304306787 L 286.81640625 164.75071454979238 L 287.40234375 167.32605906616317 L 288.0859375 171.2799311030154 L 288.96484375 177.7070621755743 L 290.0390625 187.2404467657106 L 291.6015625 203.21330889456414 L 294.23828125 230.3774485023319 L 295.41015625 240.30234812037384 L 296.2890625 246.1912650449042 L 297.0703125 250.07841090818744 L 297.65625 252.07783929158822 L 298.14453125 253.11269928026894 L 298.6328125 253.55890385715108 L 298.92578125 253.54134360374212 L 299.31640625 253.18509694844477 L 299.8046875 252.20959259582574 L 300.29296875 250.65714758083104 L 300.87890625 248.06151795301363 L 301.5625 244.0858281448542 L 302.44140625 237.63441346833488 L 303.515625 228.0784578449673 L 305.078125 212.08930225537725 L 307.71484375 184.94581159418735 L 308.88671875 175.04798627912425 L 309.765625 169.18509597893322 L 310.546875 165.32423656752346 L 311.1328125 163.34592643099813 L 311.62109375 162.32926790847245 L 312.109375 161.90156141365728 L 312.40234375 161.93026313976515 L 312.79296875 162.30130687591694 L 313.28125 163.29504138840076 L 313.76953125 164.86520028982156 L 314.35546875 167.48108222210087 L 315.0390625 171.4785395515654 L 315.91796875 177.9541562905723 L 316.9921875 187.53256216642276 L 318.5546875 203.5378091247496 L 321.19140625 230.66030776418924 L 322.36328125 240.53093367452573 L 323.2421875 246.36772324745095 L 323.92578125 249.79775550550792 L 324.51171875 251.8900232710254 L 325 253.00500380057173 L 325.48828125 253.5327259022864 L 325.78125 253.56430717581824 L 326.07421875 253.381715291419 L 326.46484375 252.8067196813942 L 326.953125 251.56240882972818 L 327.5390625 249.320698255045 L 328.22265625 245.72776034947992 L 329.00390625 240.44637357416948 L 329.98046875 232.34358444722596 L 331.25 219.97824446998393 L 335.25390625 179.47812221066565 L 336.23046875 172.0514300466873 L 337.01171875 167.42336631613466 L 337.69531250000006 164.46581304402844 L 338.28125 162.8032882401222 L 338.76953125 162.0577799395925 L 339.1392745896802 161.88720348102518 L 339.453125 162.01012816456978 L 339.84375 162.50542064552297 L 340.33203125 163.65196253820653 L 340.91796875 165.7807477288283 L 341.6015625 169.25065559619281 L 342.3828125 174.4067323865323 L 343.359375 182.38182673173813 L 344.62890625 194.63908273222282 L 348.828125 236.92798866202625 L 349.8046875 244.159340154277 L 350.5859375 248.6027980852669 L 351.26953125 251.3833306858195 L 351.85546875 252.8861769280016 L 352.34375 253.4952868009288 L 352.734375 253.555290449059 L 353.125 253.23473206339042 L 353.61328125 252.30322391672058 L 354.1015625 250.7935605585178 L 354.6875 248.24688588550367 L 355.37109375 244.32387531050978 L 356.25 237.93113719214404 L 357.32421875 228.42979652935503 L 358.88671875 212.48026146724106 L 361.62109375 184.38241496662104 L 362.6953125 175.32470010265996 L 363.57421875 169.39919616042047 L 364.35546875 165.47505374504811 L 364.94140625 163.44587859492407 L 365.4296875 162.38536556833225 L 365.91796875 161.91307689237826 L 366.2109375 161.9149204303598 L 366.6015625 162.250286433115 L 367.08984375 163.20005406981383 L 367.578125 164.72747823408258 L 368.1640625 167.2944838606744 L 368.84765625 171.23938262156742 L 369.7265625 177.65651884573919 L 370.80078125 187.18060043195317 L 372.36328125 203.14671367884065 L 375 230.319232712228 L 376.171875 240.25521323721273 L 377.05078125 246.15479564518205 L 377.83203125 250.0527210096834 L 378.41796875 252.0608136384851 L 378.90625 253.10314371629553 L 379.39453125 253.5569423333749 L 379.6875 253.54395705039238 L 380.078125 253.1937876693476 L 380.56640625 252.22577254703376 L 381.0546875 250.68060688229653 L 381.640625 248.093302747324 L 382.32421875 244.1265656613564 L 383.203125 237.68511243959477 L 384.27734375 228.13841030783823 L 385.83984375 212.15592067693728 L 388.4765625 185.00390964118054 L 389.6484375 175.09495195084898 L 390.52734375000006 169.22136564383993 L 391.30859375 165.34970659732247 L 391.89453125 163.36272187076156 L 392.3828125 162.33858791607224 L 392.87109375 161.90328509357195 L 393.1640625 161.92741195743037 L 393.5546875 162.29238029086304 L 394.04296875 163.2786306637423 L 394.53125 164.84151829911008 L 395.1171875 167.44908824070725 L 395.80078125000006 171.43761351490375 L 396.6796875 177.90330231868842 L 397.75390625 187.47250433219622 L 399.31640625 203.47116833936406 L 400 210.7767509129337" stroke-linecap="round" stroke-linejoin="round" stroke-miterlimit="10" stroke-width="2.5" stroke-dasharray=""/></g></g><g id="sketch-8b10b92f"><title/><path fill="#6042a6" stroke="none" class="dcg-svg-point" paint-order="stroke fill markers" d=" M 186.20898251065 237.30913536400618 A 1.875 1.875 0 1 1 186.20898157315008 237.3072603643187 Z"/><path fill="#6042a6" stroke="none" class="dcg-svg-point" paint-order="stroke fill markers" d=" M 186.63746992039765 212.88963660955037 A 1.875 1.875 0 1 1 186.63746898289773 212.88776160986288 Z"/><path fill="#6042a6" stroke="none" class="dcg-svg-point" paint-order="stroke fill markers" d=" M 187.06595733014532 212.89179133457944 A 1.875 1.875 0 1 1 187.0659563926454 212.88991633489195 Z"/><path fill="#6042a6" stroke="none" class="dcg-svg-point" paint-order="stroke fill markers" d=" M 187.494444739893 212.89385436918172 A 1.875 1.875 0 1 1 187.49444380239308 212.89197936949424 Z"/><path fill="#6042a6" stroke="none" class="dcg-svg-point" paint-order="stroke fill markers" d=" M 187.92293214964064 212.89646754634464 A 1.875 1.875 0 1 1 187.92293121214072 212.89459254665715 Z"/><path fill="#6042a6" stroke="none" class="dcg-svg-point" paint-order="stroke fill markers" d=" M 188.35141955938832 212.90031854426894 A 1.875 1.875 0 1 1 188.3514186218884 212.89844354458145 Z"/><path fill="#6042a6" stroke="none" class="dcg-svg-point" paint-order="stroke fill markers" d=" M 188.779906969136 212.9060033507286 A 1.875 1.875 0 1 1 188.77990603163607 212.90412835104112 Z"/><path fill="#6042a6" stroke="none" class="dcg-svg-point" paint-order="stroke fill markers" d=" M 189.20839437888367 212.91425548913782 A 1.875 1.875 0 1 1 189.20839344138375 212.91238048945033 Z"/><path fill="#6042a6" stroke="none" class="dcg-svg-point" paint-order="stroke fill markers" d=" M 189.63688178863134 212.92590017333748 A 1.875 1.875 0 1 1 189.63688085113142 212.92402517365 Z"/><path fill="#6042a6" stroke="none" class="dcg-svg-point" paint-order="stroke fill markers" d=" M 190.065369198379 212.94162508152834 A 1.875 1.875 0 1 1 190.06536826087907 212.93975008184086 Z"/><path fill="#6042a6" stroke="none" class="dcg-svg-point" paint-order="stroke fill markers" d=" M 190.49385660812666 212.96220958233798 A 1.875 1.875 0 1 1 190.49385567062674 212.9603345826505 Z"/><path fill="#6042a6" stroke="none" class="dcg-svg-point" paint-order="stroke fill markers" d=" M 190.9223440178743 212.98857058003406 A 1.875 1.875 0 1 1 190.9223430803744 212.98669558034658 Z"/><path fill="#6042a6" stroke="none" class="dcg-svg-point" paint-order="stroke fill markers" d=" M 191.35083142762198 213.02144159803072 A 1.875 1.875 0 1 1 191.35083049012206 213.01956659834323 Z"/><path fill="#6042a6" stroke="none" class="dcg-svg-point" paint-order="stroke fill markers" d=" M 191.77931883736966 213.06164785016892 A 1.875 1.875 0 1 1 191.77931789986974 213.05977285048144 Z"/><path fill="#6042a6" stroke="none" class="dcg-svg-point" paint-order="stroke fill markers" d=" M 192.20780624711733 213.1101062407163 A 1.875 1.875 0 1 1 192.2078053096174 213.10823124102882 Z"/><path fill="#6042a6" stroke="none" class="dcg-svg-point" paint-order="stroke fill markers" d=" M 192.636293656865 213.16755029308706 A 1.875 1.875 0 1 1 192.6362927193651 213.16567529339957 Z"/><path fill="#6042a6" stroke="none" class="dcg-svg-point" paint-order="stroke fill markers" d=" M 193.06478106661265 213.23489691154887 A 1.875 1.875 0 1 1 193.06478012911273 213.23302191186139 Z"/><path fill="#6042a6" stroke="none" class="dcg-svg-point" paint-order="stroke fill markers" d=" M 193.49326847636033 213.31292546472923 A 1.875 1.875 0 1 1 193.4932675388604 213.31105046504175 Z"/><path fill="#6042a6" stroke="none" class="dcg-svg-point" paint-order="stroke fill markers" d=" M 193.92175588610797 213.4025070116825 A 1.875 1.875 0 1 1 193.92175494860805 213.40063201199501 Z"/><path fill="#6042a6" stroke="none" class="dcg-svg-point" paint-order="stroke fill markers" d=" M 194.35024329585565 213.50437507582282 A 1.875 1.875 0 1 1 194.35024235835573 213.50250007613533 Z"/><path fill="#6042a6" stroke="none" class="dcg-svg-point" paint-order="stroke fill markers" d=" M 194.77873070560332 213.6194007162045 A 1.875 1.875 0 1 1 194.7787297681034 213.617525716517 Z"/><path fill="#6042a6" stroke="none" class="dcg-svg-point" paint-order="stroke fill markers" d=" M 195.207218115351 213.74831745624164 A 1.875 1.875 0 1 1 195.20721717785108 213.74644245655415 Z"/><path fill="#6042a6" stroke="none" class="dcg-svg-point" paint-order="stroke fill markers" d=" M 195.63570552509867 213.89185881934844 A 1.875 1.875 0 1 1 195.63570458759875 213.88998381966096 Z"/><path fill="#6042a6" stroke="none" class="dcg-svg-point" paint-order="stroke fill markers" d=" M 196.06419293484632 214.05075832893905 A 1.875 1.875 0 1 1 196.0641919973464 214.04888332925157 Z"/><path fill="#6042a6" stroke="none" class="dcg-svg-point" paint-order="stroke fill markers" d=" M 196.492680344594 214.22574950842758 A 1.875 1.875 0 1 1 196.49267940709407 214.2238745087401 Z"/><path fill="#6042a6" stroke="none" class="dcg-svg-point" paint-order="stroke fill markers" d=" M 196.92116775434167 214.41752003601488 A 1.875 1.875 0 1 1 196.92116681684175 214.4156450363274 Z"/><path fill="#6042a6" stroke="none" class="dcg-svg-point" paint-order="stroke fill markers" d=" M 197.3496551640893 214.62666589947486 A 1.875 1.875 0 1 1 197.3496542265894 214.62479089978737 Z"/><path fill="#6042a6" stroke="none" class="dcg-svg-point" paint-order="stroke fill markers" d=" M 197.778142573837 214.85382893179494 A 1.875 1.875 0 1 1 197.77814163633707 214.85195393210745 Z"/><path fill="#6042a6" stroke="none" class="dcg-svg-point" paint-order="stroke fill markers" d=" M 198.20662998358466 215.09965096596252 A 1.875 1.875 0 1 1 198.20662904608474 215.09777596627504 Z"/><path fill="#6042a6" stroke="none" class="dcg-svg-point" paint-order="stroke fill markers" d=" M 198.63511739333234 215.36459045411144 A 1.875 1.875 0 1 1 198.63511645583242 215.36271545442395 Z"/><path fill="#6042a6" stroke="none" class="dcg-svg-point" paint-order="stroke fill markers" d=" M 199.06360480307998 215.64928922922903 A 1.875 1.875 0 1 1 199.06360386558006 215.64741422954154 Z"/><path fill="#6042a6" stroke="none" class="dcg-svg-point" paint-order="stroke fill markers" d=" M 199.49209221282766 215.95415989823582 A 1.875 1.875 0 1 1 199.49209127532774 215.95228489854833 Z"/><path fill="#6042a6" stroke="none" class="dcg-svg-point" paint-order="stroke fill markers" d=" M 199.92057962257533 216.279706758479 A 1.875 1.875 0 1 1 199.9205786850754 216.2778317587915 Z"/><path fill="#6042a6" stroke="none" class="dcg-svg-point" paint-order="stroke fill markers" d=" M 200.34906703232298 216.62638826209243 A 1.875 1.875 0 1 1 200.34906609482306 216.62451326240495 Z"/><path fill="#6042a6" stroke="none" class="dcg-svg-point" paint-order="stroke fill markers" d=" M 200.77755444207065 216.99457117078316 A 1.875 1.875 0 1 1 200.77755350457073 216.99269617109567 Z"/><path fill="#6042a6" stroke="none" class="dcg-svg-point" paint-order="stroke fill markers" d=" M 201.20604185181833 217.3846680914717 A 1.875 1.875 0 1 1 201.2060409143184 217.3827930917842 Z"/><path fill="#6042a6" stroke="none" class="dcg-svg-point" paint-order="stroke fill markers" d=" M 201.634529261566 217.7969999406517 A 1.875 1.875 0 1 1 201.63452832406608 217.7951249409642 Z"/><path fill="#6042a6" stroke="none" class="dcg-svg-point" paint-order="stroke fill markers" d=" M 202.06301667131365 218.23188763481687 A 1.875 1.875 0 1 1 202.06301573381373 218.23001263512938 Z"/><path fill="#6042a6" stroke="none" class="dcg-svg-point" paint-order="stroke fill markers" d=" M 202.49150408106132 218.6896062452475 A 1.875 1.875 0 1 1 202.4915031435614 218.68773124556 Z"/><path fill="#6042a6" stroke="none" class="dcg-svg-point" paint-order="stroke fill markers" d=" M 202.919991490809 219.1704308432239 A 1.875 1.875 0 1 1 202.91999055330908 219.1685558435364 Z"/><path fill="#6042a6" stroke="none" class="dcg-svg-point" paint-order="stroke fill markers" d=" M 203.34847890055664 219.67459065481302 A 1.875 1.875 0 1 1 203.34847796305672 219.67271565512553 Z"/><path fill="#6042a6" stroke="none" class="dcg-svg-point" paint-order="stroke fill markers" d=" M 203.77696631030432 220.20222321565498 A 1.875 1.875 0 1 1 203.7769653728044 220.2003482159675 Z"/><path fill="#6042a6" stroke="none" class="dcg-svg-point" paint-order="stroke fill markers" d=" M 204.205453720052 220.75355775181671 A 1.875 1.875 0 1 1 204.20545278255207 220.75168275212923 Z"/><path fill="#6042a6" stroke="none" class="dcg-svg-point" paint-order="stroke fill markers" d=" M 204.63394112979967 221.3286401085116 A 1.875 1.875 0 1 1 204.63394019229975 221.3267651088241 Z"/><path fill="#6042a6" stroke="none" class="dcg-svg-point" paint-order="stroke fill markers" d=" M 205.0624285395473 221.9276078213798 A 1.875 1.875 0 1 1 205.0624276020474 221.92573282169232 Z"/><path fill="#6042a6" stroke="none" class="dcg-svg-point" paint-order="stroke fill markers" d=" M 205.490915949295 222.5505067356347 A 1.875 1.875 0 1 1 205.49091501179507 222.54863173594723 Z"/><path fill="#6042a6" stroke="none" class="dcg-svg-point" paint-order="stroke fill markers" d=" M 205.91940335904266 223.19729100606295 A 1.875 1.875 0 1 1 205.91940242154274 223.19541600637547 Z"/><path fill="#6042a6" stroke="none" class="dcg-svg-point" paint-order="stroke fill markers" d=" M 206.3478907687903 223.86796063266448 A 1.875 1.875 0 1 1 206.3478898312904 223.866085632977 Z"/><path fill="#6042a6" stroke="none" class="dcg-svg-point" paint-order="stroke fill markers" d=" M 206.77637817853798 224.56237807979917 A 1.875 1.875 0 1 1 206.77637724103806 224.5605030801117 Z"/><path fill="#6042a6" stroke="none" class="dcg-svg-point" paint-order="stroke fill markers" d=" M 207.20486558828566 225.28040581182688 A 1.875 1.875 0 1 1 207.20486465078574 225.2785308121394 Z"/><path fill="#6042a6" stroke="none" class="dcg-svg-point" paint-order="stroke fill markers" d=" M 207.63335299803333 226.02181460268065 A 1.875 1.875 0 1 1 207.6333520605334 226.01993960299316 Z"/><path fill="#6042a6" stroke="none" class="dcg-svg-point" paint-order="stroke fill markers" d=" M 208.061840407781 226.78632938108024 A 1.875 1.875 0 1 1 208.0618394702811 226.78445438139275 Z"/><path fill="#6042a6" stroke="none" class="dcg-svg-point" paint-order="stroke fill markers" d=" M 208.49032781752865 227.57349169489171 A 1.875 1.875 0 1 1 208.49032688002873 227.57161669520423 Z"/><path fill="#6042a6" stroke="none" class="dcg-svg-point" paint-order="stroke fill markers" d=" M 208.91881522727633 228.38288893719468 A 1.875 1.875 0 1 1 208.9188142897764 228.3810139375072 Z"/><path fill="#6042a6" stroke="none" class="dcg-svg-point" paint-order="stroke fill markers" d=" M 209.347302637024 229.21383342978837 A 1.875 1.875 0 1 1 209.34730169952408 229.21195843010088 Z"/><path fill="#6042a6" stroke="none" class="dcg-svg-point" paint-order="stroke fill markers" d=" M 209.77579004677165 230.06559164925858 A 1.875 1.875 0 1 1 209.77578910927173 230.0637166495711 Z"/><path fill="#6042a6" stroke="none" class="dcg-svg-point" paint-order="stroke fill markers" d=" M 210.20427745651932 230.93724669133766 A 1.875 1.875 0 1 1 210.2042765190194 230.93537169165018 Z"/><path fill="#6042a6" stroke="none" class="dcg-svg-point" paint-order="stroke fill markers" d=" M 210.632764866267 231.82774411611777 A 1.875 1.875 0 1 1 210.63276392876708 231.82586911643028 Z"/><path fill="#6042a6" stroke="none" class="dcg-svg-point" paint-order="stroke fill markers" d=" M 211.06125227601467 232.73575441241076 A 1.875 1.875 0 1 1 211.06125133851475 232.73387941272327 Z"/><path fill="#6042a6" stroke="none" class="dcg-svg-point" paint-order="stroke fill markers" d=" M 211.48973968576232 233.65962715253477 A 1.875 1.875 0 1 1 211.4897387482624 233.65775215284728 Z"/><path fill="#6042a6" stroke="none" class="dcg-svg-point" paint-order="stroke fill markers" d=" M 211.91822709551 234.5976202183812 A 1.875 1.875 0 1 1 211.91822615801007 234.5957452186937 Z"/><path fill="#6042a6" stroke="none" class="dcg-svg-point" paint-order="stroke fill markers" d=" M 212.34671450525767 235.54744134928083 A 1.875 1.875 0 1 1 212.34671356775775 235.54556634959334 Z"/><path fill="#6042a6" stroke="none" class="dcg-svg-point" paint-order="stroke fill markers" d=" M 212.7752019150053 236.5065232132841 A 1.875 1.875 0 1 1 212.7752009775054 236.50464821359662 Z"/><path fill="#6042a6" stroke="none" class="dcg-svg-point" paint-order="stroke fill markers" d=" M 213.203689324753 237.4717483358809 A 1.875 1.875 0 1 1 213.20368838725307 237.46987333619342 Z"/><path fill="#6042a6" stroke="none" class="dcg-svg-point" paint-order="stroke fill markers" d=" M 213.63217673450066 238.43954079042726 A 1.875 1.875 0 1 1 213.63217579700074 238.43766579073977 Z"/><path fill="#6042a6" stroke="none" class="dcg-svg-point" paint-order="stroke fill markers" d=" M 214.06066414424834 239.40563697207836 A 1.875 1.875 0 1 1 214.06066320674842 239.40376197239087 Z"/><path fill="#6042a6" stroke="none" class="dcg-svg-point" paint-order="stroke fill markers" d=" M 214.48915155399598 240.36508559778872 A 1.875 1.875 0 1 1 214.48915061649606 240.36321059810123 Z"/><path fill="#6042a6" stroke="none" class="dcg-svg-point" paint-order="stroke fill markers" d=" M 214.91763896374366 241.3121101706719 A 1.875 1.875 0 1 1 214.91763802624374 241.3102351709844 Z"/><path fill="#6042a6" stroke="none" class="dcg-svg-point" paint-order="stroke fill markers" d=" M 215.34612637349133 242.23997144436035 A 1.875 1.875 0 1 1 215.3461254359914 242.23809644467286 Z"/><path fill="#6042a6" stroke="none" class="dcg-svg-point" paint-order="stroke fill markers" d=" M 215.77461378323898 243.14082988736536 A 1.875 1.875 0 1 1 215.77461284573906 243.13895488767787 Z"/><path fill="#6042a6" stroke="none" class="dcg-svg-point" paint-order="stroke fill markers" d=" M 216.20310119298665 244.00569983786355 A 1.875 1.875 0 1 1 216.20310025548673 244.00382483817606 Z"/><path fill="#6042a6" stroke="none" class="dcg-svg-point" paint-order="stroke fill markers" d=" M 216.63158860273433 244.82403689677648 A 1.875 1.875 0 1 1 216.6315876652344 244.822161897089 Z"/><path fill="#6042a6" stroke="none" class="dcg-svg-point" paint-order="stroke fill markers" d=" M 217.060076012482 245.5839671538376 A 1.875 1.875 0 1 1 217.06007507498208 245.5820921541501 Z"/><path fill="#6042a6" stroke="none" class="dcg-svg-point" paint-order="stroke fill markers" d=" M 217.48856342222965 246.27173704503156 A 1.875 1.875 0 1 1 217.48856248472973 246.26986204534407 Z"/><path fill="#6042a6" stroke="none" class="dcg-svg-point" paint-order="stroke fill markers" d=" M 217.91705083197732 246.87180504302097 A 1.875 1.875 0 1 1 217.9170498944774 246.86993004333348 Z"/><path fill="#6042a6" stroke="none" class="dcg-svg-point" paint-order="stroke fill markers" d=" M 218.345538241725 247.36661243107966 A 1.875 1.875 0 1 1 218.34553730422508 247.36473743139217 Z"/><path fill="#6042a6" stroke="none" class="dcg-svg-point" paint-order="stroke fill markers" d=" M 218.77402565147264 247.73644576745224 A 1.875 1.875 0 1 1 218.77402471397272 247.73457076776475 Z"/><path fill="#6042a6" stroke="none" class="dcg-svg-point" paint-order="stroke fill markers" d=" M 219.20251306122032 247.9595744209945 A 1.875 1.875 0 1 1 219.2025121237204 247.957699421307 Z"/><path fill="#6042a6" stroke="none" class="dcg-svg-point" paint-order="stroke fill markers" d=" M 219.631000470968 248.01202134510635 A 1.875 1.875 0 1 1 219.63099953346807 248.01014634541886 Z"/><path fill="#6042a6" stroke="none" class="dcg-svg-point" paint-order="stroke fill markers" d=" M 220.05948788071566 247.86792983943894 A 1.875 1.875 0 1 1 220.05948694321575 247.86605483975146 Z"/><path fill="#6042a6" stroke="none" class="dcg-svg-point" paint-order="stroke fill markers" d=" M 220.4879752904633 247.49988446638832 A 1.875 1.875 0 1 1 220.4879743529634 247.49800946670084 Z"/><path fill="#6042a6" stroke="none" class="dcg-svg-point" paint-order="stroke fill markers" d=" M 220.91646270021099 246.87936950322944 A 1.875 1.875 0 1 1 220.91646176271107 246.87749450354195 Z"/><path fill="#6042a6" stroke="none" class="dcg-svg-point" paint-order="stroke fill markers" d=" M 221.34495010995866 245.97750246552997 A 1.875 1.875 0 1 1 221.34494917245874 245.97562746584248 Z"/><path fill="#6042a6" stroke="none" class="dcg-svg-point" paint-order="stroke fill markers" d=" M 221.77343751970633 244.7663636183388 A 1.875 1.875 0 1 1 221.77343658220641 244.7644886186513 Z"/><path fill="#6042a6" stroke="none" class="dcg-svg-point" paint-order="stroke fill markers" d=" M 222.20192492945398 243.22005041609373 A 1.875 1.875 0 1 1 222.20192399195406 243.21817541640624 Z"/><path fill="#6042a6" stroke="none" class="dcg-svg-point" paint-order="stroke fill markers" d=" M 222.63042090894984 241.31669469201034 A 1.875 1.875 0 1 1 222.63041997144992 241.31481969232286 Z"/><path fill="#6042a6" stroke="none" class="dcg-svg-point" paint-order="stroke fill markers" d=" M 223.05890831869752 239.0401589309773 A 1.875 1.875 0 1 1 223.0589073811976 239.0382839312898 Z"/><path fill="#6042a6" stroke="none" class="dcg-svg-point" paint-order="stroke fill markers" d=" M 223.4873957284452 236.38237437543893 A 1.875 1.875 0 1 1 223.48739479094527 236.38049937575144 Z"/><path fill="#6042a6" stroke="none" class="dcg-svg-point" paint-order="stroke fill markers" d=" M 223.91588313819284 233.34526652435738 A 1.875 1.875 0 1 1 223.91588220069292 233.3433915246699 Z"/><path fill="#6042a6" stroke="none" class="dcg-svg-point" paint-order="stroke fill markers" d=" M 224.3443705479405 229.9427264773882 A 1.875 1.875 0 1 1 224.3443696104406 229.9408514777007 Z"/><path fill="#6042a6" stroke="none" class="dcg-svg-point" paint-order="stroke fill markers" d=" M 224.7728579576882 226.20194044606828 A 1.875 1.875 0 1 1 224.77285702018827 226.2000654463808 Z"/><path fill="#6042a6" stroke="none" class="dcg-svg-point" paint-order="stroke fill markers" d=" M 225.20134536743583 222.16398574159018 A 1.875 1.875 0 1 1 225.20134442993592 222.1621107419027 Z"/><path fill="#6042a6" stroke="none" class="dcg-svg-point" paint-order="stroke fill markers" d=" M 225.6298327771835 217.88332647745466 A 1.875 1.875 0 1 1 225.6298318396836 217.88145147776717 Z"/><path fill="#6042a6" stroke="none" class="dcg-svg-point" paint-order="stroke fill markers" d=" M 226.05832018693118 213.42630067742905 A 1.875 1.875 0 1 1 226.05831924943126 213.42442567774157 Z"/><path fill="#6042a6" stroke="none" class="dcg-svg-point" paint-order="stroke fill markers" d=" M 226.48680759667886 208.86815867476264 A 1.875 1.875 0 1 1 226.48680665917894 208.86628367507515 Z"/><path fill="#6042a6" stroke="none" class="dcg-svg-point" paint-order="stroke fill markers" d=" M 226.9152950064265 204.2896934890029 A 1.875 1.875 0 1 1 226.91529406892658 204.2878184893154 Z"/><path fill="#6042a6" stroke="none" class="dcg-svg-point" paint-order="stroke fill markers" d=" M 227.34378241617418 199.7726792272637 A 1.875 1.875 0 1 1 227.34378147867426 199.7708042275762 Z"/><path fill="#6042a6" stroke="none" class="dcg-svg-point" paint-order="stroke fill markers" d=" M 227.77226982592185 195.3956991698074 A 1.875 1.875 0 1 1 227.77226888842193 195.3938241701199 Z"/><path fill="#6042a6" stroke="none" class="dcg-svg-point" paint-order="stroke fill markers" d=" M 228.20075723566953 191.2298821652 A 1.875 1.875 0 1 1 228.2007562981696 191.2280071655125 Z"/><path fill="#6042a6" stroke="none" class="dcg-svg-point" paint-order="stroke fill markers" d=" M 228.62924464541717 187.3358355855358 A 1.875 1.875 0 1 1 228.62924370791725 187.3339605858483 Z"/><path fill="#6042a6" stroke="none" class="dcg-svg-point" paint-order="stroke fill markers" d=" M 229.05773205516485 183.76142183358814 A 1.875 1.875 0 1 1 229.05773111766493 183.75954683390066 Z"/><path fill="#6042a6" stroke="none" class="dcg-svg-point" paint-order="stroke fill markers" d=" M 229.48621946491252 180.54070390290178 A 1.875 1.875 0 1 1 229.4862185274126 180.5388289032143 Z"/><path fill="#6042a6" stroke="none" class="dcg-svg-point" paint-order="stroke fill markers" d=" M 229.91470687466017 177.69399122300598 A 1.875 1.875 0 1 1 229.91470593716025 177.6921162233185 Z"/><path fill="#6042a6" stroke="none" class="dcg-svg-point" paint-order="stroke fill markers" d=" M 230.34319428440784 175.22893994453594 A 1.875 1.875 0 1 1 230.34319334690792 175.22706494484845 Z"/><path fill="#6042a6" stroke="none" class="dcg-svg-point" paint-order="stroke fill markers" d=" M 230.77168169415552 173.14220336691466 A 1.875 1.875 0 1 1 230.7716807566556 173.14032836722717 Z"/><path fill="#6042a6" stroke="none" class="dcg-svg-point" paint-order="stroke fill markers" d=" M 231.20016053415497 171.42140328252825 A 1.875 1.875 0 1 1 231.20015959665506 171.41952828284076 Z"/><path fill="#6042a6" stroke="none" class="dcg-svg-point" paint-order="stroke fill markers" d=" M 231.62864794390265 170.0471930113285 A 1.875 1.875 0 1 1 231.62864700640273 170.045318011641 Z"/><path fill="#6042a6" stroke="none" class="dcg-svg-point" paint-order="stroke fill markers" d=" M 232.05713535365032 168.99545797107518 A 1.875 1.875 0 1 1 232.0571344161504 168.9935829713877 Z"/><path fill="#6042a6" stroke="none" class="dcg-svg-point" paint-order="stroke fill markers" d=" M 232.485622763398 168.23910364065807 A 1.875 1.875 0 1 1 232.48562182589808 168.23722864097059 Z"/><path fill="#6042a6" stroke="none" class="dcg-svg-point" paint-order="stroke fill markers" d=" M 232.91411017314564 167.7495226069252 A 1.875 1.875 0 1 1 232.91410923564572 167.74764760723772 Z"/><path fill="#6042a6" stroke="none" class="dcg-svg-point" paint-order="stroke fill markers" d=" M 233.34259758289332 167.49796992108458 A 1.875 1.875 0 1 1 233.3425966453934 167.4960949213971 Z"/><path fill="#6042a6" stroke="none" class="dcg-svg-point" paint-order="stroke fill markers" d=" M 233.771084992641 167.45638831254485 A 1.875 1.875 0 1 1 233.77108405514107 167.45451331285736 Z"/><path fill="#6042a6" stroke="none" class="dcg-svg-point" paint-order="stroke fill markers" d=" M 234.19957240238864 167.59800417668953 A 1.875 1.875 0 1 1 234.19957146488872 167.59612917700204 Z"/><path fill="#6042a6" stroke="none" class="dcg-svg-point" paint-order="stroke fill markers" d=" M 234.6280598121363 167.89801525307755 A 1.875 1.875 0 1 1 234.6280588746364 167.89614025339006 Z"/><path fill="#6042a6" stroke="none" class="dcg-svg-point" paint-order="stroke fill markers" d=" M 235.056547221884 168.3334989350167 A 1.875 1.875 0 1 1 235.05654628438407 168.33162393532922 Z"/><path fill="#6042a6" stroke="none" class="dcg-svg-point" paint-order="stroke fill markers" d=" M 235.48503463163166 168.8837331860572 A 1.875 1.875 0 1 1 235.48503369413174 168.88185818636973 Z"/><path fill="#6042a6" stroke="none" class="dcg-svg-point" paint-order="stroke fill markers" d=" M 235.9135220413793 169.53010484956496 A 1.875 1.875 0 1 1 235.9135211038794 169.52822984987748 Z"/><path fill="#6042a6" stroke="none" class="dcg-svg-point" paint-order="stroke fill markers" d=" M 236.34200945112698 170.2560638035082 A 1.875 1.875 0 1 1 236.34200851362706 170.2541888038207 Z"/><path fill="#6042a6" stroke="none" class="dcg-svg-point" paint-order="stroke fill markers" d=" M 236.77049686087466 171.04707711524398 A 1.875 1.875 0 1 1 236.77049592337474 171.0452021155565 Z"/><path fill="#6042a6" stroke="none" class="dcg-svg-point" paint-order="stroke fill markers" d=" M 237.1989842706223 171.8903081250247 A 1.875 1.875 0 1 1 237.19898333312238 171.8884331253372 Z"/><path fill="#6042a6" stroke="none" class="dcg-svg-point" paint-order="stroke fill markers" d=" M 237.62747168036998 172.77452475557112 A 1.875 1.875 0 1 1 237.62747074287006 172.77264975588363 Z"/><path fill="#6042a6" stroke="none" class="dcg-svg-point" paint-order="stroke fill markers" d=" M 238.05595909011765 173.69005366685917 A 1.875 1.875 0 1 1 238.05595815261773 173.68817866717168 Z"/><path fill="#6042a6" stroke="none" class="dcg-svg-point" paint-order="stroke fill markers" d=" M 238.48444649986533 174.6285051848394 A 1.875 1.875 0 1 1 238.4844455623654 174.62663018515192 Z"/><path fill="#6042a6" stroke="none" class="dcg-svg-point" paint-order="stroke fill markers" d=" M 238.91293390961297 175.5825899205838 A 1.875 1.875 0 1 1 238.91293297211305 175.58071492089633 Z"/><path fill="#6042a6" stroke="none" class="dcg-svg-point" paint-order="stroke fill markers" d=" M 239.34142131936065 176.546072925072 A 1.875 1.875 0 1 1 239.34142038186073 176.5441979253845 Z"/><path fill="#6042a6" stroke="none" class="dcg-svg-point" paint-order="stroke fill markers" d=" M 239.76990872910832 177.51359030833805 A 1.875 1.875 0 1 1 239.7699077916084 177.51171530865057 Z"/><path fill="#6042a6" stroke="none" class="dcg-svg-point" paint-order="stroke fill markers" d=" M 240.19839613885597 237.63440715296903 A 1.875 1.875 0 1 1 240.19839520135605 237.63253215328155 Z"/><path fill="#6042a6" stroke="none" class="dcg-svg-point" paint-order="stroke fill markers" d=" M 240.62688354860364 238.6021996075154 A 1.875 1.875 0 1 1 240.62688261110372 238.6003246078279 Z"/><path fill="#6042a6" stroke="none" class="dcg-svg-point" paint-order="stroke fill markers" d=" M 241.05537095835132 239.56756226575234 A 1.875 1.875 0 1 1 241.0553700208514 239.56568726606486 Z"/><path fill="#6042a6" stroke="none" class="dcg-svg-point" paint-order="stroke fill markers" d=" M 241.483858368099 240.52536046378088 A 1.875 1.875 0 1 1 241.48385743059907 240.5234854640934 Z"/><path fill="#6042a6" stroke="none" class="dcg-svg-point" paint-order="stroke fill markers" d=" M 241.91234577784664 241.46968016907437 A 1.875 1.875 0 1 1 241.91234484034672 241.46780516938688 Z"/><path fill="#6042a6" stroke="none" class="dcg-svg-point" paint-order="stroke fill markers" d=" M 242.3408331875943 242.39355290919838 A 1.875 1.875 0 1 1 242.3408322500944 242.3916779095109 Z"/><path fill="#6042a6" stroke="none" class="dcg-svg-point" paint-order="stroke fill markers" d=" M 242.769320597342 243.2890474622374 A 1.875 1.875 0 1 1 242.76931965984207 243.2871724625499 Z"/><path fill="#6042a6" stroke="none" class="dcg-svg-point" paint-order="stroke fill markers" d=" M 243.19780800708966 244.14685724987436 A 1.875 1.875 0 1 1 243.19780706958974 244.14498225018687 Z"/><path fill="#6042a6" stroke="none" class="dcg-svg-point" paint-order="stroke fill markers" d=" M 243.6262954168373 244.95625449217732 A 1.875 1.875 0 1 1 243.6262944793374 244.95437949248984 Z"/><path fill="#6042a6" stroke="none" class="dcg-svg-point" paint-order="stroke fill markers" d=" M 244.05478282658498 245.70504436238602 A 1.875 1.875 0 1 1 244.05478188908506 245.70316936269853 Z"/><path fill="#6042a6" stroke="none" class="dcg-svg-point" paint-order="stroke fill markers" d=" M 244.48327023633266 246.37924407041814 A 1.875 1.875 0 1 1 244.48326929883274 246.37736907073065 Z"/><path fill="#6042a6" stroke="none" class="dcg-svg-point" paint-order="stroke fill markers" d=" M 244.91175764608033 246.96289948201596 A 1.875 1.875 0 1 1 244.9117567085804 246.96102448232847 Z"/><path fill="#6042a6" stroke="none" class="dcg-svg-point" paint-order="stroke fill markers" d=" M 245.34024505582798 247.43808511874607 A 1.875 1.875 0 1 1 245.34024411832806 247.4362101190586 Z"/><path fill="#6042a6" stroke="none" class="dcg-svg-point" paint-order="stroke fill markers" d=" M 245.76873246557565 247.78485831278624 A 1.875 1.875 0 1 1 245.76873152807573 247.78298331309875 Z"/><path fill="#6042a6" stroke="none" class="dcg-svg-point" paint-order="stroke fill markers" d=" M 246.19721987532333 247.98098413564506 A 1.875 1.875 0 1 1 246.1972189378234 247.97910913595757 Z"/><path fill="#6042a6" stroke="none" class="dcg-svg-point" paint-order="stroke fill markers" d=" M 246.62570728507097 248.00225631465545 A 1.875 1.875 0 1 1 246.62570634757105 248.00038131496797 Z"/><path fill="#6042a6" stroke="none" class="dcg-svg-point" paint-order="stroke fill markers" d=" M 247.05419469481865 247.8224972329749 A 1.875 1.875 0 1 1 247.05419375731873 247.82062223328742 Z"/><path fill="#6042a6" stroke="none" class="dcg-svg-point" paint-order="stroke fill markers" d=" M 247.48268210456632 247.41401638171922 A 1.875 1.875 0 1 1 247.4826811670664 247.41214138203173 Z"/><path fill="#6042a6" stroke="none" class="dcg-svg-point" paint-order="stroke fill markers" d=" M 247.911169514314 246.74816050252304 A 1.875 1.875 0 1 1 247.91116857681408 246.74628550283555 Z"/><path fill="#6042a6" stroke="none" class="dcg-svg-point" paint-order="stroke fill markers" d=" M 248.33965692406164 245.79623049180773 A 1.875 1.875 0 1 1 248.33965598656172 245.79435549212025 Z"/><path fill="#6042a6" stroke="none" class="dcg-svg-point" paint-order="stroke fill markers" d=" M 248.76814433380932 244.5304441502623 A 1.875 1.875 0 1 1 248.7681433963094 244.5285691505748 Z"/><path fill="#6042a6" stroke="none" class="dcg-svg-point" paint-order="stroke fill markers" d=" M 249.196631743557 242.92549492009846 A 1.875 1.875 0 1 1 249.19663080605707 242.92361992041097 Z"/><path fill="#6042a6" stroke="none" class="dcg-svg-point" paint-order="stroke fill markers" d=" M 249.62511915330464 240.9603398483728 A 1.875 1.875 0 1 1 249.62511821580472 240.9584648486853 Z"/><path fill="#6042a6" stroke="none" class="dcg-svg-point" paint-order="stroke fill markers" d=" M 250.0536065630523 238.61998755030857 A 1.875 1.875 0 1 1 250.0536056255524 238.61811255062108 Z"/><path fill="#6042a6" stroke="none" class="dcg-svg-point" paint-order="stroke fill markers" d=" M 250.4820939728 235.89797385081854 A 1.875 1.875 0 1 1 250.48209303530007 235.89609885113106 Z"/><path fill="#6042a6" stroke="none" class="dcg-svg-point" paint-order="stroke fill markers" d=" M 250.91058138254766 232.79810390261363 A 1.875 1.875 0 1 1 250.91058044504774 232.79622890292615 Z"/><path fill="#6042a6" stroke="none" class="dcg-svg-point" paint-order="stroke fill markers" d=" M 251.3390687922953 229.33642353037845 A 1.875 1.875 0 1 1 251.3390678547954 229.33454853069097 Z"/><path fill="#6042a6" stroke="none" class="dcg-svg-point" paint-order="stroke fill markers" d=" M 251.76755620204298 225.54245705153255 A 1.875 1.875 0 1 1 251.76755526454306 225.54058205184506 Z"/><path fill="#6042a6" stroke="none" class="dcg-svg-point" paint-order="stroke fill markers" d=" M 252.19604361179066 221.4595281927243 A 1.875 1.875 0 1 1 252.19604267429074 221.4576531930368 Z"/><path fill="#6042a6" stroke="none" class="dcg-svg-point" paint-order="stroke fill markers" d=" M 252.6245310215383 217.14430163769688 A 1.875 1.875 0 1 1 252.62453008403838 217.1424266380094 Z"/><path fill="#6042a6" stroke="none" class="dcg-svg-point" paint-order="stroke fill markers" d=" M 253.05301843128598 212.6647658378995 A 1.875 1.875 0 1 1 253.05301749378606 212.662890838212 Z"/><path fill="#6042a6" stroke="none" class="dcg-svg-point" paint-order="stroke fill markers" d=" M 253.48150584103365 208.09748780110982 A 1.875 1.875 0 1 1 253.48150490353373 208.09561280142233 Z"/><path fill="#6042a6" stroke="none" class="dcg-svg-point" paint-order="stroke fill markers" d=" M 253.90999325078133 203.52367040308297 A 1.875 1.875 0 1 1 253.9099923132814 203.5217954033955 Z"/><path fill="#6042a6" stroke="none" class="dcg-svg-point" paint-order="stroke fill markers" d=" M 254.33848066052897 199.02489795174947 A 1.875 1.875 0 1 1 254.33847972302905 199.02302295206198 Z"/><path fill="#6042a6" stroke="none" class="dcg-svg-point" paint-order="stroke fill markers" d=" M 254.76696807027665 194.67868003247415 A 1.875 1.875 0 1 1 254.76696713277673 194.67680503278666 Z"/><path fill="#6042a6" stroke="none" class="dcg-svg-point" paint-order="stroke fill markers" d=" M 255.19545548002432 190.55462801726 A 1.875 1.875 0 1 1 255.1954545425244 190.5527530175725 Z"/><path fill="#6042a6" stroke="none" class="dcg-svg-point" paint-order="stroke fill markers" d=" M 255.62394288977197 186.7113779340258 A 1.875 1.875 0 1 1 255.62394195227205 186.7095029343383 Z"/><path fill="#6042a6" stroke="none" class="dcg-svg-point" paint-order="stroke fill markers" d=" M 256.05243029951964 183.19440823444893 A 1.875 1.875 0 1 1 256.0524293620197 183.19253323476144 Z"/><path fill="#6042a6" stroke="none" class="dcg-svg-point" paint-order="stroke fill markers" d=" M 256.4809177092673 180.03548965140482 A 1.875 1.875 0 1 1 256.4809167717674 180.03361465171733 Z"/><path fill="#6042a6" stroke="none" class="dcg-svg-point" paint-order="stroke fill markers" d=" M 256.909405119015 177.25277688939374 A 1.875 1.875 0 1 1 256.9094041815151 177.25090188970626 Z"/><path fill="#6042a6" stroke="none" class="dcg-svg-point" paint-order="stroke fill markers" d=" M 257.33789252876267 174.85186306444862 A 1.875 1.875 0 1 1 257.33789159126275 174.84998806476113 Z"/><path fill="#6042a6" stroke="none" class="dcg-svg-point" paint-order="stroke fill markers" d=" M 257.76637993851034 172.82775104831052 A 1.875 1.875 0 1 1 257.76637900101036 172.82587604862303 Z"/><path fill="#6042a6" stroke="none" class="dcg-svg-point" paint-order="stroke fill markers" d=" M 258.19486734825796 171.16668727696407 A 1.875 1.875 0 1 1 258.19486641075804 171.16481227727658 Z"/><path fill="#6042a6" stroke="none" class="dcg-svg-point" paint-order="stroke fill markers" d=" M 258.62335475800563 169.84849985652016 A 1.875 1.875 0 1 1 258.6233538205057 169.84662485683268 Z"/><path fill="#6042a6" stroke="none" class="dcg-svg-point" paint-order="stroke fill markers" d=" M 259.0518421677533 168.84838652653778 A 1.875 1.875 0 1 1 259.0518412302534 168.8465115268503 Z"/><path fill="#6042a6" stroke="none" class="dcg-svg-point" paint-order="stroke fill markers" d=" M 259.480329577501 168.13888600419958 A 1.875 1.875 0 1 1 259.48032864000106 168.1370110045121 Z"/><path fill="#6042a6" stroke="none" class="dcg-svg-point" paint-order="stroke fill markers" d=" M 259.90881698724866 167.69134503114032 A 1.875 1.875 0 1 1 259.90881604974874 167.68947003145283 Z"/><path fill="#6042a6" stroke="none" class="dcg-svg-point" paint-order="stroke fill markers" d=" M 260.33730439699633 167.47706450378126 A 1.875 1.875 0 1 1 260.3373034594964 167.47518950409378 Z"/><path fill="#6042a6" stroke="none" class="dcg-svg-point" paint-order="stroke fill markers" d=" M 260.765791806744 167.4680788419579 A 1.875 1.875 0 1 1 260.7657908692441 167.4662038422704 Z"/><path fill="#6042a6" stroke="none" class="dcg-svg-point" paint-order="stroke fill markers" d=" M 261.1942792164916 167.63802704797416 A 1.875 1.875 0 1 1 261.1942782789917 167.63615204828668 Z"/><path fill="#6042a6" stroke="none" class="dcg-svg-point" paint-order="stroke fill markers" d=" M 261.6227666262393 167.96238193266936 A 1.875 1.875 0 1 1 261.6227656887394 167.96050693298187 Z"/><path fill="#6042a6" stroke="none" class="dcg-svg-point" paint-order="stroke fill markers" d=" M 262.051254035987 168.4185418058449 A 1.875 1.875 0 1 1 262.05125309848705 168.41666680615742 Z"/><path fill="#6042a6" stroke="none" class="dcg-svg-point" paint-order="stroke fill markers" d=" M 262.47974144573465 168.98615139275813 A 1.875 1.875 0 1 1 262.4797405082347 168.98427639307064 Z"/><path fill="#6042a6" stroke="none" class="dcg-svg-point" paint-order="stroke fill markers" d=" M 262.9082288554823 169.64701014369538 A 1.875 1.875 0 1 1 262.9082279179824 169.6451351440079 Z"/><path fill="#6042a6" stroke="none" class="dcg-svg-point" paint-order="stroke fill markers" d=" M 263.33671626523 170.38488885311858 A 1.875 1.875 0 1 1 263.3367153277301 170.3830138534311 Z"/><path fill="#6042a6" stroke="none" class="dcg-svg-point" paint-order="stroke fill markers" d=" M 263.76520367497767 171.1855296596651 A 1.875 1.875 0 1 1 263.76520273747775 171.1836546599776 Z"/><path fill="#6042a6" stroke="none" class="dcg-svg-point" paint-order="stroke fill markers" d=" M 264.1936910847253 172.03637097486762 A 1.875 1.875 0 1 1 264.19369014722537 172.03449597518014 Z"/><path fill="#6042a6" stroke="none" class="dcg-svg-point" paint-order="stroke fill markers" d=" M 264.62217849447296 172.92650163794067 A 1.875 1.875 0 1 1 264.62217755697304 172.9246266382532 Z"/><path fill="#6042a6" stroke="none" class="dcg-svg-point" paint-order="stroke fill markers" d=" M 265.05066590422064 173.846477534927 A 1.875 1.875 0 1 1 265.0506649667207 173.84460253523952 Z"/><path fill="#6042a6" stroke="none" class="dcg-svg-point" paint-order="stroke fill markers" d=" M 265.4791533139683 174.78800068220403 A 1.875 1.875 0 1 1 265.4791523764684 174.78612568251654 Z"/><path fill="#6042a6" stroke="none" class="dcg-svg-point" paint-order="stroke fill markers" d=" M 265.907640723716 175.74410260733734 A 1.875 1.875 0 1 1 265.90763978621607 175.74222760764985 Z"/><path fill="#6042a6" stroke="none" class="dcg-svg-point" paint-order="stroke fill markers" d=" M 266.33612813346366 176.70859420652 A 1.875 1.875 0 1 1 266.33612719596374 176.7067192068325 Z"/><path fill="#6042a6" stroke="none" class="dcg-svg-point" paint-order="stroke fill markers" d=" M 266.76461554321133 177.67634081585294 A 1.875 1.875 0 1 1 266.7646146057114 177.67446581616545 Z"/></g></g><g id="labels-8b10b92f"/><g id="labels-8b10b92f"/></g></svg>