<svg version="1.1" xmlns="http://www.w3.org/2000/svg" xmlns:xlink="http://www.w3.org/1999/xlink" width="800" height="800"><defs/><g transform="scale(2,2)"><g id="background-2e69d003"><rect fill="white" stroke="none" x="0" y="0" width="400" height="400" class="dcg-svg-background"/></g><g id="graphpaper-2e69d003"><g id="grid-2e69d003"><g><path fill="none" stroke="rgb(0,0,0)" class="dcg-svg-minor-gridline" paint-order="fill stroke markers" d=" M 27.5 0 L 27.5 400" stroke-opacity="0.2" stroke-miterlimit="10" stroke-dasharray=""/><path fill="none" stroke="rgb(0,0,0)" class="dcg-svg-minor-gridline" paint-order="fill stroke markers" d=" M 80.5 0 L 80.5 400" stroke-opacity="0.2" stroke-miterlimit="10" stroke-dasharray=""/><path fill="none" stroke="rgb(0,0,0)" class="dcg-svg-minor-gridline" paint-order="fill stroke markers" d=" M 133.5 0 L 133.5 400" stroke-opacity="0.2" stroke-miterlimit="10" stroke-dasharray=""/><path fill="none" stroke="rgb(0,0,0)" class="dcg-svg-minor-gridline" paint-order="fill stroke markers" d=" M 240.5 0 L 240.5 400" stroke-opacity="0.2" stroke-miterlimit="10" stroke-dasharray=""/><path fill="none" stroke="rgb(0,0,0)" class="dcg-svg-minor-gridline" paint-order="fill stroke markers" d=" M 293.5 0 L 293.5 400" stroke-opacity="0.2" stroke-miterlimit="10" stroke-dasharray=""/><path fill="none" stroke="rgb(0,0,0)" class="dcg-svg-minor-gridline" paint-order="fill stroke markers" d=" M 346.5 0 L 346.5 400" stroke-opacity="0.2" stroke-miterlimit="10" stroke-dasharray=""/><path fill="none" stroke="rgb(0,0,0)" class="dcg-svg-minor-gridline" paint-order="fill stroke markers" d=" M 399.5 0 L 399.5 400" stroke-opacity="0.2" stroke-miterlimit="10" stroke-dasharray=""/><path fill="none" stroke="rgb(0,0,0)" class="dcg-svg-minor-gridline" paint-order="fill stroke markers" d=" M 0 375.5 L 400 375.5" stroke-opacity="0.2" stroke-miterlimit="10" stroke-dasharray=""/><path fill="none" stroke="rgb(0,0,0)" class="dcg-svg-minor-gridline" paint-order="fill stroke markers" d=" M 0 345.5 L 400 345.5" stroke-opacity="0.2" stroke-miterlimit="10" stroke-dasharray=""/><path fill="none" stroke="rgb(0,0,0)" class="dcg-svg-minor-gridline" paint-order="fill stroke markers" d=" M 0 315.5 L 400 315.5" stroke-opacity="0.2" stroke-miterlimit="10" stroke-dasharray=""/><path fill="none" stroke="rgb(0,0,0)" class="dcg-svg-minor-gridline" paint-order="fill stroke markers" d=" M 0 286.5 L 400 286.5" stroke-opacity="0.2" stroke-miterlimit="10" stroke-dasharray=""/><path fill="none" stroke="rgb(0,0,0)" class="dcg-svg-minor-gridline" paint-order="fill stroke markers" d=" M 0 256.5 L 400 256.5" stroke-opacity="0.2" stroke-miterlimit="10" stroke-dasharray=""/><path fill="none" stroke="rgb(0,0,0)" class="dcg-svg-minor-gridline" paint-order="fill stroke markers" d=" M 0 226.5 L 400 226.5" stroke-opacity="0.2" stroke-miterlimit="10" stroke-dasharray=""/><path fill="none" stroke="rgb(0,0,0)" class="dcg-svg-minor-gridline" paint-order="fill stroke markers" d=" M 0 167.5 L 400 167.5" stroke-opacity="0.2" stroke-miterlimit="10" stroke-dasharray=""/><path fill="none" stroke="rgb(0,0,0)" class="dcg-svg-minor-gridline" paint-order="fill stroke markers" d=" M 0 137.5 L 400 137.5" stroke-opacity="0.2" stroke-miterlimit="10" stroke-dasharray=""/><path fill="none" stroke="rgb(0,0,0)" class="dcg-svg-minor-gridline" paint-order="fill stroke markers" d=" M 0 108.5 L 400 108.5" stroke-opacity="0.2" stroke-miterlimit="10" stroke-dasharray=""/><path fill="none" stroke="rgb(0,0,0)" class="dcg-svg-minor-gridline" paint-order="fill stroke markers" d=" M 0 78.5 L 400 78.5" stroke-opacity="0.2" stroke-miterlimit="10" stroke-dasharray=""/><path fill="none" stroke="rgb(0,0,0)" class="dcg-svg-minor-gridline" paint-order="fill stroke markers" d=" M 0 48.5 L 400 48.5" stroke-opacity="0.2" stroke-miterlimit="10" stroke-dasharray=""/><path fill="none" stroke="rgb(0,0,0)" class="dcg-svg-minor-gridline" paint-order="fill stroke markers" d=" M 0 19.5 L 400 19.5" stroke-opacity="0.2" stroke-miterlimit="10" stroke-dasharray=""/><path fill="none" stroke="rgb(0,0,0)" class="dcg-svg-major-gridline" paint-order="fill stroke markers" d=" M 0 345.5 L 400 345.5" stroke-opacity="0.2500000000000001" stroke-miterlimit="10" stroke-dasharray=""/><path fill="none" stroke="rgb(0,0,0)" class="dcg-svg-major-gridline" paint-order="fill stroke markers" d=" M 0 48.5 L 400 48.5" stroke-opacity="0.2500000000000001" stroke-miterlimit="10" stroke-dasharray=""/></g></g><g id="axis-2e69d003"><g id="yaxis-2e69d003"><title>Y axis</title><g><path fill="none" stroke="rgb(0,0,0)" class="dcg-svg-axis-line" paint-order="fill stroke markers" d=" M 187 0 L 187 400" stroke-opacity="0.9" stroke-miterlimit="10" stroke-width="1.5" stroke-dasharray=""/></g></g><g id="xaxis-2e69d003"><title>X axis</title><g><path fill="none" stroke="rgb(0,0,0)" class="dcg-svg-axis-line" paint-order="fill stroke markers" d=" M 0 197 L 400 197" stroke-opacity="0.9" stroke-miterlimit="10" stroke-width="1.5" stroke-dasharray=""/></g></g><g><g class="dcg-svg-axis-value"><text fill="none" stroke="#ffffff" font-family="Arial" font-size="14px" font-style="normal" font-weight="normal" text-decoration="normal" x="178.26840743978266" y="212.8469150710737" text-anchor="middle" stroke-miterlimit="2" stroke-width="3" stroke-dasharray="">0</text><text fill="#000000" stroke="none" font-family="Arial" font-size="14px" font-style="normal" font-weight="normal" text-decoration="normal" x="178.26840743978266" y="212.8469150710737" text-anchor="middle">0</text></g><g class="dcg-svg-axis-value"><text fill="none" stroke="#ffffff" font-family="Arial" font-size="14px" font-style="normal" font-weight="normal" text-decoration="normal" x="172.04428634603266" y="349.1892490797683" text-anchor="middle" stroke-miterlimit="2" stroke-width="3" stroke-dasharray="">-10</text><text fill="#000000" stroke="none" font-family="Arial" font-size="14px" font-style="normal" font-weight="normal" text-decoration="normal" x="172.04428634603266" y="349.1892490797683" text-anchor="middle">-10</text></g><g class="dcg-svg-axis-value"><text fill="none" stroke="#ffffff" font-family="Arial" font-size="14px" font-style="normal" font-weight="normal" text-decoration="normal" x="174.37534103353266" y="52.50458106237915" text-anchor="middle" stroke-miterlimit="2" stroke-width="3" stroke-dasharray="">10</text><text fill="#000000" stroke="none" font-family="Arial" font-size="14px" font-style="normal" font-weight="normal" text-decoration="normal" x="174.37534103353266" y="52.50458106237915" text-anchor="middle">10</text></g></g></g></g><g id="expressions-2e69d003"><g id="sketch-2e69d003"><title>Выражение 1</title><path fill="#c74440" stroke="none" paint-order="stroke fill markers" d="" fill-opacity="0.4"/><g><path fill="none" stroke="#c74440" class="dcg-svg-curve" paint-order="fill stroke markers" d=" M 98.3970392191161 405.5 L 98.3970392191161 405.5 L 98.43749999999997 405.168232649806 L 100.78124999999997 387.56713159206436 L 103.12499999999999 371.4462918597766 L 105.46874999999999 356.6804666206086 L 107.81249999999997 343.15493648842937 L 110.15624999999997 330.7646182397323 L 112.59765624999997 318.9614917286707 L 115.03906249999997 308.18625052331413 L 117.48046874999999 298.34805244820944 L 119.92187499999999 289.36395520084614 L 122.46093749999999 280.8451779280641 L 124.99999999999997 273.090638526341 L 127.53906249999999 266.02962255881505 L 130.17578124999997 259.36211032820324 L 132.91015625 253.09425743935822 L 135.64453124999997 247.41931777163558 L 138.47656249999997 242.10277832697085 L 141.50390625 236.98361682688815 L 144.62890625 232.24196164852006 L 147.94921874999997 227.73560331915633 L 151.46484374999997 223.4848250051859 L 154.98046875 219.696716642975 L 158.69140625 216.12697791363854 L 162.59765624999997 212.77018488002966 L 166.796875 209.53885807938659 L 171.38671874999997 206.36140839806217 L 176.66015624999997 203.04886548343183 L 183.59374999999997 199.03461650756796 L 199.0234375 190.20199410900173 L 204.296875 186.8075868407662 L 208.7890625 183.60343250269415 L 212.890625 180.3449334003509 L 216.69921875 176.9648448411224 L 220.3125 173.37818654518207 L 223.73046874999997 169.58411837173665 L 227.05078125 165.46437380760347 L 230.37109375 160.85198389837595 L 233.49609375 155.99654378578768 L 236.42578125 150.93084540977873 L 239.2578125 145.50246033666934 L 241.9921875 139.70709976413502 L 244.62890625 133.54514480205358 L 247.16796875 127.02199340035293 L 249.70703124999997 119.86035053832978 L 252.1484375 112.31128537237225 L 254.58984375 104.04791209431596 L 257.03125 95.00056518198343 L 259.375 85.50681310151158 L 261.71875 75.14654024996048 L 264.0625 63.8392550786065 L 266.40625 51.49710846336396 L 268.75 38.02421118298628 L 271.09375 23.315888931745405 L 273.4375 7.257869078592961 L 275.1461481934533 -5.5" stroke-linecap="round" stroke-linejoin="round" stroke-miterlimit="10" stroke-width="2.5" stroke-dasharray=""/></g></g><g id="sketch-2e69d003"><title/><path fill="#2d70b3" stroke="none" paint-order="stroke fill markers" d="" fill-opacity="0.4"/><g><path fill="none" stroke="#2d70b3" class="dcg-svg-curve" paint-order="fill stroke markers" d=" M 107.36503982223485 277.5882090684588 L 107.36503982223485 277.5882090684588 L 110.02492095636144 273.4226079871607 L 112.68480209048803 269.3571379813184 L 115.34468322461463 265.392244077934 L 118.00456435874122 261.5285196463435 L 120.66444549286781 257.766409713549 L 123.3243266269944 254.10680433355455 L 125.98420776112101 250.5502968756961 L 128.6440888952476 247.09777739397774 L 131.3039700293742 243.75028428473755 L 133.96385116350078 240.50870760197955 L 136.62373229762738 237.3739373997078 L 139.28361343175396 234.3470120742604 L 141.94349456588057 231.42911836430937 L 144.60337570000715 228.62070129685677 L 147.26325683413376 225.92265092590662 L 149.92313796826033 223.33526393612698 L 152.58301910238694 220.8582436428498 L 155.24290023651355 218.49129336140706 L 157.90278137064013 216.2326329837907 L 160.56266250476673 214.08048240199255 L 163.2225436388933 212.03128139999643 L 165.88242477301992 210.0806242104823 L 168.5423059071465 208.2228738247578 L 171.2021870412731 206.45082080539015 L 173.86206817539968 204.75580196007323 L 176.5219493095263 203.1277596785612 L 179.18183044365287 201.55519742996842 L 181.84171157777948 200.02544677897058 L 184.50159271190606 198.5248008939052 L 227.76615528715558 174.39356773064245 L 189.82135498015927 195.55302924824224 L 192.48123611428585 194.05238336317686 L 195.14111724841246 192.52263271217902 L 197.80099838253903 190.95007046358623 L 200.46087951666564 189.3220281820742 L 203.12076065079222 187.62700933675728 L 205.78064178491883 185.85495631738962 L 208.4405229190454 183.99720593166512 L 211.100404053172 182.046548742151 L 213.7602851872986 179.99734774015488 L 216.4201663214252 177.84519715835674 L 219.08004745555178 175.58653678074037 L 221.73992858967839 173.21958649929763 L 224.399809723805 170.74256620602046 L 227.05969085793157 168.1551792162408 L 229.71957199205818 165.45712884529067 L 232.37945312618476 162.64871177783806 L 235.03933426031136 159.73081806788704 L 237.69921539443794 156.70389274243962 L 240.35909652856455 153.56912254016788 L 243.01897766269113 150.3275458574099 L 245.67885879681774 146.9800527481697 L 248.3387399309443 143.52753326645134 L 250.99862106507092 139.97102580859288 L 253.65850219919753 136.31142042859838 L 256.3183833333241 132.5493104958039 L 258.9782644674507 128.68558606421345 L 261.6381456015773 124.72069216082903 L 264.2980267357039 120.65522215498676" stroke-linecap="round" stroke-linejoin="round" stroke-miterlimit="10" stroke-width="2.5" stroke-dasharray=""/></g></g></g><g id="labels-2e69d003"/><g id="labels-2e69d003"/></g></svg>